<svg width="360" height="30" viewBox="0 0 360 30" fill="none" xmlns="http://www.w3.org/2000/svg">
<rect x="55.3936" y="15" width="7" height="7" transform="rotate(-45 55.3936 15)" stroke="#EFE7D2" stroke-opacity="0.15"/>
<rect x="66" y="14.5" width="20" height="1" fill="#EFE7D2" fill-opacity="0.15"/>
<path d="M113.4 14.148H116.832V14.388H116.712C116.584 14.388 116.472 14.436 116.376 14.532C116.28 14.612 116.2 14.716 116.136 14.844C116.072 14.972 116.016 15.108 115.968 15.252C115.936 15.396 115.92 15.524 115.92 15.636V22.068C115.632 22.18 115.304 22.276 114.936 22.356C114.568 22.436 114.184 22.5 113.784 22.548C113.384 22.612 112.976 22.66 112.56 22.692C112.144 22.724 111.76 22.74 111.408 22.74C109.968 22.74 108.712 22.5 107.64 22.02C106.568 21.54 105.68 20.916 104.976 20.148C104.272 19.364 103.744 18.484 103.392 17.508C103.056 16.532 102.888 15.548 102.888 14.556C102.888 13.564 103.056 12.58 103.392 11.604C103.744 10.628 104.272 9.756 104.976 8.988C105.696 8.22 106.592 7.604 107.664 7.14C108.752 6.66 110.04 6.42 111.528 6.42C112.088 6.42 112.608 6.468 113.088 6.564C113.568 6.66 113.992 6.748 114.36 6.828C114.568 6.876 114.744 6.924 114.888 6.972C115.048 7.004 115.184 7.02 115.296 7.02H115.512V9.564H115.272C115.176 9.068 114.984 8.668 114.696 8.364C114.424 8.06 114.104 7.828 113.736 7.668C113.368 7.508 112.976 7.404 112.56 7.356C112.16 7.292 111.784 7.26 111.432 7.26C110.232 7.26 109.192 7.476 108.312 7.908C107.432 8.324 106.712 8.868 106.152 9.54C105.592 10.212 105.176 10.972 104.904 11.82C104.632 12.652 104.496 13.484 104.496 14.316C104.496 15.244 104.672 16.164 105.024 17.076C105.376 17.972 105.872 18.78 106.512 19.5C107.152 20.204 107.92 20.78 108.816 21.228C109.728 21.66 110.736 21.876 111.84 21.876C112.144 21.876 112.52 21.844 112.968 21.78C113.416 21.7 113.864 21.532 114.312 21.276V15.636C114.312 15.524 114.296 15.396 114.264 15.252C114.232 15.108 114.176 14.972 114.096 14.844C114.032 14.716 113.952 14.612 113.856 14.532C113.76 14.436 113.648 14.388 113.52 14.388H113.4V14.148ZM119.853 22.26H119.973C120.101 22.26 120.213 22.22 120.309 22.14C120.405 22.044 120.485 21.932 120.549 21.804C120.629 21.676 120.685 21.54 120.717 21.396C120.765 21.252 120.789 21.116 120.789 20.988V8.148C120.789 8.036 120.765 7.908 120.717 7.764C120.685 7.62 120.629 7.484 120.549 7.356C120.485 7.228 120.405 7.124 120.309 7.044C120.213 6.948 120.101 6.9 119.973 6.9H119.853V6.66H129.093V8.892H128.853C128.821 8.524 128.677 8.204 128.421 7.932C128.165 7.644 127.765 7.5 127.221 7.5H122.397V13.572H126.381C126.749 13.572 127.053 13.46 127.293 13.236C127.549 13.012 127.677 12.748 127.677 12.444H127.917V15.444H127.677C127.677 15.156 127.557 14.908 127.317 14.7C127.077 14.492 126.765 14.388 126.381 14.388H122.397V21.66H127.653C127.957 21.66 128.221 21.588 128.445 21.444C128.669 21.3 128.853 21.132 128.997 20.94C129.157 20.732 129.269 20.516 129.333 20.292C129.413 20.052 129.453 19.852 129.453 19.692H129.693V22.5H119.853V22.26ZM138.574 22.26H138.694V22.5H135.286V22.26H135.406C135.534 22.26 135.646 22.212 135.742 22.116C135.838 22.02 135.918 21.908 135.982 21.78C136.062 21.652 136.118 21.516 136.15 21.372C136.182 21.212 136.198 21.068 136.198 20.94V7.548H133.414C133.158 7.548 132.934 7.604 132.742 7.716C132.55 7.828 132.39 7.972 132.262 8.148C132.134 8.308 132.038 8.492 131.974 8.7C131.91 8.892 131.878 9.084 131.878 9.276H131.638V6.66H142.414V9.276H142.174C142.174 9.084 142.142 8.892 142.078 8.7C142.014 8.492 141.918 8.308 141.79 8.148C141.662 7.972 141.502 7.828 141.31 7.716C141.118 7.604 140.894 7.548 140.638 7.548H137.806V20.94C137.806 21.068 137.822 21.212 137.854 21.372C137.886 21.516 137.934 21.652 137.998 21.78C138.078 21.908 138.158 22.02 138.238 22.116C138.334 22.212 138.446 22.26 138.574 22.26ZM152.059 6.66H155.491V6.9H155.371C155.259 6.9 155.155 6.948 155.059 7.044C154.963 7.124 154.883 7.228 154.819 7.356C154.755 7.468 154.699 7.604 154.651 7.764C154.619 7.908 154.603 8.036 154.603 8.148V20.94C154.603 21.068 154.619 21.212 154.651 21.372C154.683 21.516 154.731 21.652 154.795 21.78C154.875 21.908 154.955 22.02 155.035 22.116C155.131 22.212 155.243 22.26 155.371 22.26H155.491V22.5H152.059V22.26H152.179C152.307 22.26 152.419 22.22 152.515 22.14C152.611 22.044 152.691 21.932 152.755 21.804C152.835 21.66 152.891 21.516 152.923 21.372C152.955 21.212 152.971 21.068 152.971 20.94V8.148C152.971 8.036 152.955 7.908 152.923 7.764C152.891 7.62 152.835 7.484 152.755 7.356C152.691 7.228 152.611 7.124 152.515 7.044C152.419 6.948 152.307 6.9 152.179 6.9H152.059V6.66ZM161.319 22.26H161.439V22.5H158.775V22.26H158.895C159.007 22.26 159.111 22.212 159.207 22.116C159.319 22.02 159.407 21.908 159.471 21.78C159.535 21.652 159.583 21.516 159.615 21.372C159.663 21.212 159.687 21.068 159.687 20.94V8.148C159.687 8.036 159.671 7.908 159.639 7.764C159.623 7.62 159.583 7.484 159.519 7.356C159.455 7.228 159.367 7.124 159.255 7.044C159.143 6.948 159.007 6.9 158.847 6.9H158.727V6.66H161.151L169.863 20.388V8.148C169.863 8.036 169.839 7.908 169.791 7.764C169.759 7.62 169.703 7.484 169.623 7.356C169.559 7.228 169.479 7.124 169.383 7.044C169.287 6.948 169.175 6.9 169.047 6.9H168.927V6.66H171.615V6.9H171.495C171.367 6.9 171.255 6.948 171.159 7.044C171.063 7.124 170.975 7.228 170.895 7.356C170.831 7.484 170.783 7.62 170.751 7.764C170.719 7.908 170.703 8.036 170.703 8.148V22.5H169.215L160.527 8.724V20.94C160.527 21.068 160.543 21.212 160.575 21.372C160.607 21.516 160.655 21.652 160.719 21.78C160.799 21.908 160.887 22.02 160.983 22.116C161.079 22.212 161.191 22.26 161.319 22.26ZM188.175 22.26H188.295V22.5H184.887V22.26H185.007C185.135 22.26 185.247 22.212 185.343 22.116C185.439 22.02 185.519 21.908 185.583 21.78C185.663 21.652 185.719 21.516 185.751 21.372C185.783 21.212 185.799 21.068 185.799 20.94V7.548H183.015C182.759 7.548 182.535 7.604 182.343 7.716C182.151 7.828 181.991 7.972 181.863 8.148C181.735 8.308 181.639 8.492 181.575 8.7C181.511 8.892 181.479 9.084 181.479 9.276H181.239V6.66H192.015V9.276H191.775C191.775 9.084 191.743 8.892 191.679 8.7C191.615 8.492 191.519 8.308 191.391 8.148C191.263 7.972 191.103 7.828 190.911 7.716C190.719 7.604 190.495 7.548 190.239 7.548H187.407V20.94C187.407 21.068 187.423 21.212 187.455 21.372C187.487 21.516 187.535 21.652 187.599 21.78C187.679 21.908 187.759 22.02 187.839 22.116C187.935 22.212 188.047 22.26 188.175 22.26ZM201.223 6.42C202.471 6.42 203.591 6.644 204.583 7.092C205.575 7.524 206.415 8.116 207.103 8.868C207.807 9.604 208.343 10.468 208.711 11.46C209.095 12.436 209.287 13.46 209.287 14.532C209.287 15.732 209.063 16.836 208.615 17.844C208.183 18.852 207.583 19.716 206.815 20.436C206.047 21.156 205.151 21.724 204.127 22.14C203.119 22.54 202.039 22.74 200.887 22.74C199.655 22.74 198.543 22.516 197.551 22.068C196.575 21.62 195.743 21.028 195.055 20.292C194.383 19.556 193.863 18.708 193.495 17.748C193.127 16.788 192.943 15.788 192.943 14.748C192.943 13.724 193.127 12.716 193.495 11.724C193.863 10.716 194.399 9.82 195.103 9.036C195.823 8.252 196.695 7.62 197.719 7.14C198.743 6.66 199.911 6.42 201.223 6.42ZM201.199 21.9C202.271 21.852 203.207 21.612 204.007 21.18C204.823 20.732 205.503 20.172 206.047 19.5C206.591 18.812 206.991 18.06 207.247 17.244C207.519 16.428 207.655 15.62 207.655 14.82C207.655 13.94 207.495 13.052 207.175 12.156C206.855 11.26 206.399 10.452 205.807 9.732C205.215 8.996 204.503 8.404 203.671 7.956C202.855 7.492 201.935 7.26 200.911 7.26C199.919 7.26 199.031 7.484 198.247 7.932C197.463 8.364 196.791 8.924 196.231 9.612C195.687 10.3 195.271 11.068 194.983 11.916C194.695 12.764 194.551 13.596 194.551 14.412C194.551 15.292 194.719 16.18 195.055 17.076C195.391 17.956 195.855 18.756 196.447 19.476C197.039 20.196 197.735 20.78 198.535 21.228C199.351 21.676 200.239 21.9 201.199 21.9ZM212.393 6.66H215.801V6.9H215.681C215.553 6.9 215.441 6.948 215.345 7.044C215.249 7.124 215.161 7.228 215.081 7.356C215.017 7.484 214.969 7.62 214.937 7.764C214.905 7.908 214.889 8.036 214.889 8.148V17.628C214.889 18.252 214.953 18.828 215.081 19.356C215.209 19.884 215.425 20.34 215.729 20.724C216.033 21.108 216.433 21.412 216.929 21.636C217.425 21.844 218.033 21.948 218.753 21.948C219.553 21.948 220.193 21.82 220.673 21.564C221.153 21.308 221.521 20.98 221.777 20.58C222.033 20.164 222.201 19.7 222.281 19.188C222.361 18.676 222.401 18.172 222.401 17.676V8.148C222.401 8.036 222.385 7.908 222.353 7.764C222.321 7.62 222.265 7.484 222.185 7.356C222.121 7.228 222.041 7.124 221.945 7.044C221.849 6.948 221.745 6.9 221.633 6.9H221.513V6.66H224.129V6.9H224.009C223.881 6.9 223.769 6.948 223.673 7.044C223.593 7.124 223.513 7.228 223.432 7.356C223.369 7.484 223.321 7.62 223.289 7.764C223.257 7.908 223.241 8.036 223.241 8.148V17.604C223.241 18.644 223.113 19.5 222.857 20.172C222.601 20.828 222.249 21.348 221.801 21.732C221.353 22.116 220.825 22.38 220.217 22.524C219.625 22.668 218.993 22.74 218.321 22.74C217.601 22.74 216.929 22.66 216.305 22.5C215.697 22.356 215.169 22.092 214.721 21.708C214.273 21.324 213.921 20.804 213.665 20.148C213.409 19.476 213.281 18.636 213.281 17.628V8.148C213.281 8.036 213.265 7.908 213.233 7.764C213.201 7.62 213.145 7.484 213.065 7.356C213.001 7.228 212.921 7.124 212.825 7.044C212.729 6.948 212.625 6.9 212.513 6.9H212.393V6.66ZM235.856 7.284C234.672 7.284 233.64 7.5 232.76 7.932C231.896 8.348 231.176 8.9 230.6 9.588C230.024 10.26 229.592 11.02 229.304 11.868C229.032 12.716 228.896 13.556 228.896 14.388C228.896 15.332 229.08 16.26 229.448 17.172C229.816 18.068 230.32 18.868 230.96 19.572C231.616 20.26 232.376 20.82 233.24 21.252C234.104 21.668 235.04 21.876 236.048 21.876C236.336 21.876 236.672 21.844 237.056 21.78C237.456 21.716 237.848 21.596 238.232 21.42C238.616 21.228 238.968 20.964 239.288 20.628C239.624 20.292 239.88 19.852 240.056 19.308H240.296V21.972C240.056 21.972 239.8 22.004 239.528 22.068C239.272 22.132 238.984 22.204 238.664 22.284C238.248 22.396 237.784 22.5 237.272 22.596C236.776 22.692 236.248 22.74 235.688 22.74C234.296 22.74 233.072 22.5 232.016 22.02C230.96 21.54 230.08 20.916 229.376 20.148C228.672 19.38 228.144 18.516 227.792 17.556C227.44 16.58 227.264 15.596 227.264 14.604C227.264 13.612 227.44 12.628 227.792 11.652C228.144 10.676 228.68 9.804 229.4 9.036C230.12 8.252 231.024 7.62 232.112 7.14C233.2 6.66 234.48 6.42 235.952 6.42C236.48 6.42 236.952 6.468 237.368 6.564C237.8 6.66 238.184 6.756 238.52 6.852C238.76 6.932 238.976 6.996 239.168 7.044C239.376 7.076 239.576 7.092 239.768 7.092V9.756H239.528C239.432 9.26 239.256 8.852 239 8.532C238.744 8.196 238.44 7.94 238.088 7.764C237.752 7.588 237.384 7.468 236.984 7.404C236.6 7.324 236.224 7.284 235.856 7.284ZM252.937 22.26H253.057C253.169 22.26 253.273 22.22 253.369 22.14C253.465 22.044 253.545 21.932 253.609 21.804C253.689 21.66 253.745 21.516 253.777 21.372C253.809 21.212 253.825 21.068 253.825 20.94V14.412H246.145V20.94C246.145 21.068 246.161 21.212 246.193 21.372C246.225 21.516 246.273 21.652 246.337 21.78C246.401 21.908 246.473 22.02 246.553 22.116C246.649 22.212 246.761 22.26 246.889 22.26H247.009V22.5H243.649V22.26H243.769C243.881 22.26 243.985 22.22 244.081 22.14C244.177 22.044 244.257 21.932 244.321 21.804C244.401 21.66 244.457 21.516 244.489 21.372C244.521 21.212 244.537 21.068 244.537 20.94V8.148C244.537 8.036 244.521 7.908 244.489 7.764C244.457 7.62 244.409 7.484 244.345 7.356C244.281 7.228 244.201 7.124 244.105 7.044C244.009 6.948 243.897 6.9 243.769 6.9H243.649V6.66H247.009V6.9H246.889C246.761 6.9 246.649 6.948 246.553 7.044C246.457 7.124 246.377 7.228 246.313 7.356C246.265 7.484 246.225 7.62 246.193 7.764C246.161 7.908 246.145 8.036 246.145 8.148V13.572H253.825V8.148C253.825 8.036 253.809 7.908 253.777 7.764C253.745 7.62 253.697 7.484 253.633 7.356C253.569 7.228 253.489 7.124 253.393 7.044C253.297 6.948 253.185 6.9 253.057 6.9H252.937V6.66H256.297V6.9H256.177C256.049 6.9 255.937 6.948 255.841 7.044C255.745 7.124 255.665 7.228 255.601 7.356C255.553 7.484 255.513 7.62 255.481 7.764C255.449 7.908 255.433 8.036 255.433 8.148V20.94C255.433 21.068 255.449 21.212 255.481 21.372C255.529 21.516 255.585 21.652 255.649 21.78C255.713 21.908 255.785 22.02 255.865 22.116C255.961 22.212 256.065 22.26 256.177 22.26H256.297V22.5H252.937V22.26Z" fill="#EFE7D2"/>
<rect x="274" y="14.5" width="20" height="1" fill="#EFE7D2" fill-opacity="0.15"/>
<rect x="294.707" y="15" width="7" height="7" transform="rotate(-45 294.707 15)" stroke="#EFE7D2" stroke-opacity="0.15"/>
</svg>
