<svg width="360" height="206" viewBox="0 0 360 206" fill="none" xmlns="http://www.w3.org/2000/svg">
<path d="M1.044 13H0.168L3.324 4.408H4.392L7.584 13H6.684L5.844 10.72H1.884L1.044 13ZM3.744 5.62L2.148 9.964H5.568L3.96 5.62C3.924 5.5 3.864 5.356 3.852 5.272C3.84 5.344 3.792 5.5 3.744 5.62ZM12.3944 13H9.77838V4.408H12.3704C14.9624 4.408 16.6904 6.136 16.6904 8.704C16.6904 11.272 14.9744 13 12.3944 13ZM12.3344 5.2H10.6424V12.208H12.3584C14.4584 12.208 15.8024 10.84 15.8024 8.704C15.8024 6.556 14.4584 5.2 12.3344 5.2ZM21.867 13H19.251V4.408H21.843C24.435 4.408 26.163 6.136 26.163 8.704C26.163 11.272 24.447 13 21.867 13ZM21.807 5.2H20.115V12.208H21.831C23.931 12.208 25.275 10.84 25.275 8.704C25.275 6.556 23.931 5.2 21.807 5.2ZM29.5877 13H28.7237V4.408H31.9277C33.6677 4.408 34.7237 5.368 34.7237 6.892C34.7237 8.128 34.0757 8.992 32.9717 9.292L34.8077 13H33.8477L32.0957 9.436H29.5877V13ZM29.5877 5.188V8.656H31.9517C33.1397 8.656 33.8357 8.008 33.8357 6.916C33.8357 5.8 33.1037 5.188 31.9277 5.188H29.5877ZM42.5475 13H37.3995V4.408H42.5355V5.2H38.2635V8.296H42.1395V9.076H38.2635V12.208H42.5475V13ZM44.7858 6.64C44.7858 5.2 45.9378 4.252 47.6658 4.252C49.2138 4.252 50.2338 5.116 50.3658 6.556H49.4898C49.3938 5.584 48.7338 5.032 47.6538 5.032C46.4418 5.032 45.6498 5.656 45.6498 6.628C45.6498 7.384 46.0938 7.864 46.9938 8.092L48.4698 8.452C49.8138 8.776 50.5098 9.544 50.5098 10.708C50.5098 12.196 49.3578 13.144 47.5818 13.144C45.9138 13.144 44.7858 12.268 44.6778 10.864H45.5658C45.6138 11.764 46.4058 12.352 47.5818 12.352C48.8418 12.352 49.6458 11.74 49.6458 10.756C49.6458 9.988 49.2138 9.484 48.2898 9.268L46.8378 8.908C45.4938 8.584 44.7858 7.816 44.7858 6.64ZM52.571 6.64C52.571 5.2 53.723 4.252 55.451 4.252C56.999 4.252 58.019 5.116 58.151 6.556H57.275C57.179 5.584 56.519 5.032 55.439 5.032C54.227 5.032 53.435 5.656 53.435 6.628C53.435 7.384 53.879 7.864 54.779 8.092L56.255 8.452C57.599 8.776 58.295 9.544 58.295 10.708C58.295 12.196 57.143 13.144 55.367 13.144C53.699 13.144 52.571 12.268 52.463 10.864H53.351C53.399 11.764 54.191 12.352 55.367 12.352C56.627 12.352 57.431 11.74 57.431 10.756C57.431 9.988 56.999 9.484 56.075 9.268L54.623 8.908C53.279 8.584 52.571 7.816 52.571 6.64Z" fill="#EFE7D2"/>
<path d="M216.5 21H209.204V20.36L212.804 17.176C215.14 15.112 215.684 14.296 215.684 12.84C215.684 11.192 214.66 10.168 213.012 10.168C211.316 10.168 210.164 11.416 210.1 13.32H209.332C209.412 10.984 210.884 9.448 213.044 9.448C215.06 9.448 216.452 10.824 216.452 12.792C216.452 14.472 215.764 15.528 213.252 17.736L210.356 20.296H216.5V21ZM221.313 14.696H220.609V14.136L224.321 10.344H218.609V9.64H225.361V10.28L221.665 14.04C224.001 14.04 225.569 15.432 225.569 17.496C225.569 19.704 224.001 21.192 221.697 21.192C219.457 21.192 218.049 19.8 218.049 17.608H218.817C218.817 19.384 219.921 20.472 221.697 20.472C223.585 20.472 224.801 19.288 224.801 17.464C224.801 15.72 223.521 14.696 221.313 14.696ZM236.955 10.184C234.187 10.184 232.363 12.264 232.363 15.352C232.363 18.488 234.235 20.456 237.003 20.456C238.859 20.456 241.019 19.624 241.019 16.488V15.672H236.603V14.968H241.755V21.016H241.179L241.083 18.968C240.491 20.216 239.003 21.192 237.035 21.192C233.787 21.192 231.579 18.888 231.579 15.368C231.579 11.88 233.771 9.448 236.955 9.448C239.259 9.448 241.051 10.744 241.547 12.696H240.699C240.171 11.048 238.747 10.184 236.955 10.184ZM247.521 13.208V13.848H246.945C245.521 13.848 244.593 14.888 244.593 16.328V21H243.857V13.32H244.545L244.609 14.552C244.913 13.688 245.761 13.128 246.849 13.128C247.089 13.128 247.265 13.144 247.521 13.208ZM251.867 21.192C249.643 21.192 248.171 19.592 248.171 17.176C248.171 14.776 249.627 13.128 251.771 13.128C253.771 13.128 255.147 14.568 255.147 16.664V17.176H248.907C248.971 19.272 250.059 20.52 251.867 20.52C253.227 20.52 254.091 19.928 254.395 18.792H255.147C254.699 20.376 253.595 21.192 251.867 21.192ZM251.771 13.8C250.203 13.8 249.099 14.888 248.923 16.568H254.395C254.395 14.904 253.355 13.8 251.771 13.8ZM260.117 21.192C257.893 21.192 256.421 19.592 256.421 17.176C256.421 14.776 257.877 13.128 260.021 13.128C262.021 13.128 263.397 14.568 263.397 16.664V17.176H257.157C257.221 19.272 258.309 20.52 260.117 20.52C261.477 20.52 262.341 19.928 262.645 18.792H263.397C262.949 20.376 261.845 21.192 260.117 21.192ZM260.021 13.8C258.453 13.8 257.349 14.888 257.173 16.568H262.645C262.645 14.904 261.605 13.8 260.021 13.8ZM265.983 21H265.247V13.32H265.839L265.999 14.808C266.511 13.736 267.567 13.128 268.719 13.128C270.895 13.128 271.711 14.408 271.711 16.328V21H270.975V16.472C270.975 14.44 270.095 13.8 268.703 13.8C266.959 13.8 265.983 15.096 265.983 17.032V21ZM278.972 21V13.96H275.084V21H274.348V13.96H273.148V13.32H274.348V11.592C274.348 10.024 275.228 9.448 276.188 9.448C276.444 9.448 276.748 9.464 276.972 9.496V10.152H276.316C275.356 10.152 275.084 10.616 275.084 11.592V13.32H279.708V21H278.972ZM279.324 10.856C278.972 10.856 278.732 10.616 278.732 10.264C278.732 9.912 278.972 9.64 279.324 9.64C279.676 9.64 279.932 9.912 279.932 10.264C279.932 10.616 279.676 10.856 279.324 10.856ZM285.18 21.192C282.956 21.192 281.484 19.592 281.484 17.176C281.484 14.776 282.94 13.128 285.084 13.128C287.084 13.128 288.46 14.568 288.46 16.664V17.176H282.22C282.284 19.272 283.372 20.52 285.18 20.52C286.54 20.52 287.404 19.928 287.708 18.792H288.46C288.012 20.376 286.908 21.192 285.18 21.192ZM285.084 13.8C283.516 13.8 282.412 14.888 282.236 16.568H287.708C287.708 14.904 286.668 13.8 285.084 13.8ZM291.11 21H290.374V9.448H291.11V21ZM296.567 21.192C294.311 21.192 293.031 19.432 293.031 17.16C293.031 14.888 294.311 13.128 296.567 13.128C297.927 13.128 298.983 13.736 299.543 14.984V9.448H300.279V21H299.687L299.575 19.272C298.999 20.584 297.895 21.192 296.567 21.192ZM296.647 20.52C298.487 20.52 299.527 19.112 299.527 17.16C299.527 15.224 298.487 13.8 296.647 13.8C294.823 13.8 293.783 15.224 293.783 17.16C293.783 19.112 294.823 20.52 296.647 20.52ZM306.992 21H306.224L310.432 9.64H311.568L315.824 21H315.04L313.84 17.816H308.176L306.992 21ZM310.896 10.456L308.432 17.112H313.584L311.088 10.456C311.056 10.36 311.008 10.248 310.992 10.168C310.976 10.232 310.928 10.376 310.896 10.456ZM318.922 21L315.738 13.32H316.522L318.81 18.904C318.97 19.304 319.13 19.704 319.306 20.248C319.466 19.704 319.626 19.336 319.802 18.904L322.09 13.32H322.858L319.674 21H318.922ZM327.039 21.192C324.815 21.192 323.343 19.592 323.343 17.176C323.343 14.776 324.799 13.128 326.943 13.128C328.943 13.128 330.319 14.568 330.319 16.664V17.176H324.079C324.143 19.272 325.231 20.52 327.039 20.52C328.399 20.52 329.263 19.928 329.567 18.792H330.319C329.871 20.376 328.767 21.192 327.039 21.192ZM326.943 13.8C325.375 13.8 324.271 14.888 324.095 16.568H329.567C329.567 14.904 328.527 13.8 326.943 13.8ZM332.905 21H332.169V13.32H332.761L332.921 14.808C333.433 13.736 334.489 13.128 335.641 13.128C337.817 13.128 338.633 14.408 338.633 16.328V21H337.897V16.472C337.897 14.44 337.017 13.8 335.625 13.8C333.881 13.8 332.905 15.096 332.905 17.032V21ZM346.438 13.32H347.174V21H346.582L346.438 19.576C346.022 20.536 344.934 21.192 343.654 21.192C341.814 21.192 340.87 19.928 340.87 18.056V13.304H341.622V17.864C341.622 19.832 342.55 20.52 343.83 20.52C345.446 20.52 346.438 19.4 346.438 17.416V13.32ZM352.57 21.192C350.346 21.192 348.874 19.592 348.874 17.176C348.874 14.776 350.33 13.128 352.474 13.128C354.474 13.128 355.85 14.568 355.85 16.664V17.176H349.61C349.674 19.272 350.762 20.52 352.57 20.52C353.93 20.52 354.794 19.928 355.098 18.792H355.85C355.402 20.376 354.298 21.192 352.57 21.192ZM352.474 13.8C350.906 13.8 349.802 14.888 349.626 16.568H355.098C355.098 14.904 354.058 13.8 352.474 13.8ZM358.88 20.536C358.88 21.384 358.192 22.152 357.344 22.296V21.784C357.84 21.688 358.224 21.288 358.224 20.888C358.144 20.952 358.016 21 357.808 21C357.456 21 357.12 20.744 357.12 20.248C357.12 19.784 357.456 19.432 357.952 19.432C358.416 19.432 358.88 19.816 358.88 20.536ZM262.071 45.728H258.599V50H257.831V38.64H262.071C264.231 38.64 265.559 40.048 265.559 42.16C265.559 44.16 264.215 45.728 262.071 45.728ZM262.039 39.344H258.599V45.024H261.943C263.719 45.024 264.775 43.824 264.775 42.128C264.775 40.416 263.703 39.344 262.039 39.344ZM270.911 42.208V42.848H270.335C268.911 42.848 267.983 43.888 267.983 45.328V50H267.247V42.32H267.935L267.999 43.552C268.303 42.688 269.151 42.128 270.239 42.128C270.479 42.128 270.655 42.144 270.911 42.208ZM274.314 50.192C272.666 50.192 271.722 49.28 271.722 47.968C271.722 46.56 272.81 45.664 274.602 45.52L277.242 45.312V45.024C277.242 43.296 276.218 42.8 275.002 42.8C273.578 42.8 272.73 43.472 272.73 44.592H271.994C271.994 43.088 273.21 42.128 275.018 42.128C276.666 42.128 277.978 42.928 277.978 44.912V50H277.386L277.242 48.56C276.714 49.6 275.642 50.192 274.314 50.192ZM274.41 49.536C276.218 49.536 277.242 48.224 277.242 46.336V45.92L274.666 46.128C273.114 46.256 272.458 47.008 272.458 47.952C272.458 49.008 273.258 49.536 274.41 49.536ZM279.734 45.92C279.734 43.888 281.046 42.128 283.318 42.128C284.742 42.128 285.814 42.832 286.326 44.112L286.422 42.32H287.014V49.84C287.014 51.984 285.59 53.424 283.446 53.424C281.59 53.424 280.262 52.384 279.942 50.624H280.662C280.95 51.968 281.99 52.752 283.462 52.752C285.158 52.752 286.294 51.584 286.294 49.84V47.76C285.766 48.992 284.63 49.712 283.238 49.712C281.03 49.712 279.734 47.952 279.734 45.92ZM280.486 45.92C280.486 47.616 281.51 49.04 283.286 49.04C285.11 49.04 286.166 47.712 286.166 45.904C286.166 44.128 285.158 42.8 283.318 42.8C281.494 42.8 280.486 44.24 280.486 45.92ZM294.922 42.32H295.658V50H295.066L294.922 48.576C294.506 49.536 293.418 50.192 292.138 50.192C290.298 50.192 289.354 48.928 289.354 47.056V42.304H290.106V46.864C290.106 48.832 291.034 49.52 292.314 49.52C293.93 49.52 294.922 48.4 294.922 46.416V42.32ZM301.055 50.192C298.831 50.192 297.359 48.592 297.359 46.176C297.359 43.776 298.815 42.128 300.959 42.128C302.959 42.128 304.335 43.568 304.335 45.664V46.176H298.095C298.159 48.272 299.247 49.52 301.055 49.52C302.415 49.52 303.279 48.928 303.583 47.792H304.335C303.887 49.376 302.783 50.192 301.055 50.192ZM300.959 42.8C299.391 42.8 298.287 43.888 298.111 45.568H303.583C303.583 43.904 302.543 42.8 300.959 42.8ZM312.253 39.344H310.013V38.64H313.005V50H312.253V39.344ZM322.375 50H315.079V49.36L318.679 46.176C321.015 44.112 321.559 43.296 321.559 41.84C321.559 40.192 320.535 39.168 318.887 39.168C317.191 39.168 316.039 40.416 315.975 42.32H315.207C315.287 39.984 316.759 38.448 318.919 38.448C320.935 38.448 322.327 39.824 322.327 41.792C322.327 43.472 321.639 44.528 319.127 46.736L316.231 49.296H322.375V50ZM324.132 44.32C324.132 40.784 325.796 38.432 328.564 38.432C331.332 38.432 332.996 40.784 332.996 44.32C332.996 47.856 331.332 50.208 328.564 50.208C325.796 50.208 324.132 47.856 324.132 44.32ZM324.884 44.32C324.884 47.408 326.228 49.488 328.564 49.488C330.9 49.488 332.244 47.408 332.244 44.32C332.244 41.232 330.9 39.152 328.564 39.152C326.228 39.152 324.884 41.232 324.884 44.32ZM339.398 44.32C339.398 40.784 341.062 38.432 343.83 38.432C346.598 38.432 348.262 40.784 348.262 44.32C348.262 47.856 346.598 50.208 343.83 50.208C341.062 50.208 339.398 47.856 339.398 44.32ZM340.15 44.32C340.15 47.408 341.494 49.488 343.83 49.488C346.166 49.488 347.51 47.408 347.51 44.32C347.51 41.232 346.166 39.152 343.83 39.152C341.494 39.152 340.15 41.232 340.15 44.32ZM350.179 44.32C350.179 40.784 351.843 38.432 354.611 38.432C357.379 38.432 359.043 40.784 359.043 44.32C359.043 47.856 357.379 50.208 354.611 50.208C351.843 50.208 350.179 47.856 350.179 44.32ZM350.931 44.32C350.931 47.408 352.275 49.488 354.611 49.488C356.947 49.488 358.291 47.408 358.291 44.32C358.291 41.232 356.947 39.152 354.611 39.152C352.275 39.152 350.931 41.232 350.931 44.32Z" fill="#EFE7D2"/>
<path d="M4.32 91.844H1.908V95H1.044V86.408H4.32C5.976 86.408 7.02 87.488 7.02 89.108C7.02 90.668 5.964 91.844 4.32 91.844ZM4.2 87.188H1.908V91.064H4.152C5.4 91.064 6.12 90.272 6.12 89.096C6.12 87.908 5.388 87.188 4.2 87.188ZM10.2791 95H9.41509V86.408H10.2791V90.236H14.9231V86.408H15.7751V95H14.9231V91.04H10.2791V95ZM26.532 90.704C26.532 93.308 24.84 95.144 22.44 95.144C20.028 95.144 18.348 93.308 18.348 90.704C18.348 88.1 20.04 86.252 22.44 86.252C24.852 86.252 26.532 88.088 26.532 90.704ZM25.644 90.704C25.644 88.556 24.336 87.092 22.44 87.092C20.544 87.092 19.248 88.556 19.248 90.704C19.248 92.852 20.544 94.316 22.44 94.316C24.336 94.316 25.644 92.84 25.644 90.704ZM29.9627 95H29.0987V86.408H29.9747L34.7027 93.56V86.408H35.5547V95H34.7027L29.9627 87.848V95ZM43.8014 95H38.6534V86.408H43.7894V87.2H39.5174V90.296H43.3934V91.076H39.5174V94.208H43.8014V95Z" fill="#EFE7D2"/>
<path d="M234.718 97.256H238.366V93.608H239.07V97.256H242.718V97.96H239.07V101.624H238.366V97.96H234.718V97.256ZM245.584 99.784H250.768V92.408L245.584 99.784ZM252.864 100.488H251.536V103H250.768V100.488H244.72V99.784L250.464 91.64H251.536V99.784H252.864V100.488ZM261.018 98.952L258.01 103H257.098L260.266 98.808C259.53 99.256 258.986 99.384 258.33 99.384C255.962 99.384 254.394 97.624 254.394 95.432C254.394 93.16 256.138 91.448 258.346 91.448C260.554 91.448 262.33 93.192 262.33 95.432C262.33 96.728 262.01 97.624 261.018 98.952ZM261.562 95.432C261.562 93.544 260.234 92.168 258.346 92.168C256.49 92.168 255.162 93.544 255.162 95.432C255.162 97.304 256.49 98.664 258.346 98.664C260.234 98.664 261.562 97.304 261.562 95.432ZM270.409 92.344H268.169V91.64H271.161V103H270.409V92.344ZM280.532 103H273.236V102.36L276.836 99.176C279.172 97.112 279.716 96.296 279.716 94.84C279.716 93.192 278.692 92.168 277.044 92.168C275.348 92.168 274.196 93.416 274.132 95.32H273.364C273.444 92.984 274.916 91.448 277.076 91.448C279.092 91.448 280.484 92.824 280.484 94.792C280.484 96.472 279.796 97.528 277.284 99.736L274.388 102.296H280.532V103ZM285.344 96.696H284.64V96.136L288.352 92.344H282.64V91.64H289.392V92.28L285.696 96.04C288.032 96.04 289.6 97.432 289.6 99.496C289.6 101.704 288.032 103.192 285.728 103.192C283.488 103.192 282.08 101.8 282.08 99.608H282.848C282.848 101.384 283.952 102.472 285.728 102.472C287.616 102.472 288.832 101.288 288.832 99.464C288.832 97.72 287.552 96.696 285.344 96.696ZM291.834 99.784H297.018V92.408L291.834 99.784ZM299.114 100.488H297.786V103H297.018V100.488H290.97V99.784L296.714 91.64H297.786V99.784H299.114V100.488ZM309.249 103.192C307.009 103.192 305.601 101.8 305.601 99.608H306.369C306.369 101.384 307.473 102.472 309.249 102.472C311.137 102.472 312.353 101.208 312.353 99.384C312.353 97.688 311.217 96.28 309.233 96.28C308.113 96.28 307.089 96.776 306.369 97.496L305.857 97.256L307.201 91.64H312.497V92.344H307.761L306.785 96.408C307.489 95.864 308.369 95.56 309.281 95.56C311.681 95.56 313.121 97.32 313.121 99.4C313.121 101.608 311.553 103.192 309.249 103.192ZM315.956 95.688L318.964 91.64H319.876L316.708 95.832C317.444 95.384 317.988 95.256 318.644 95.256C321.012 95.256 322.58 97.016 322.58 99.208C322.58 101.48 320.836 103.192 318.628 103.192C316.42 103.192 314.644 101.448 314.644 99.208C314.644 97.912 314.964 97.016 315.956 95.688ZM315.412 99.208C315.412 101.096 316.74 102.472 318.628 102.472C320.484 102.472 321.812 101.096 321.812 99.208C321.812 97.336 320.484 95.976 318.628 95.976C316.74 95.976 315.412 97.336 315.412 99.208ZM322.582 91.64H330.102V92.344L325.494 103H324.694L329.334 92.344H322.582V91.64ZM330.989 99.96C330.989 98.552 331.869 97.432 333.261 96.968C332.061 96.488 331.389 95.528 331.389 94.328C331.389 92.616 332.813 91.448 334.909 91.448C336.989 91.448 338.397 92.616 338.397 94.328C338.397 95.56 337.725 96.52 336.541 96.968C337.917 97.368 338.813 98.52 338.813 99.976C338.813 101.864 337.213 103.192 334.909 103.192C332.589 103.192 330.989 101.864 330.989 99.96ZM332.141 94.296C332.141 95.688 333.245 96.616 334.909 96.616C336.573 96.616 337.645 95.72 337.645 94.328C337.645 93 336.573 92.152 334.909 92.152C333.245 92.152 332.141 93 332.141 94.296ZM331.741 99.88C331.741 101.432 333.037 102.488 334.925 102.488C336.781 102.488 338.061 101.432 338.061 99.896C338.061 98.36 336.813 97.352 334.893 97.352C332.989 97.352 331.741 98.36 331.741 99.88ZM347.112 98.952L344.104 103H343.192L346.36 98.808C345.624 99.256 345.08 99.384 344.424 99.384C342.056 99.384 340.488 97.624 340.488 95.432C340.488 93.16 342.232 91.448 344.44 91.448C346.648 91.448 348.424 93.192 348.424 95.432C348.424 96.728 348.104 97.624 347.112 98.952ZM347.656 95.432C347.656 93.544 346.328 92.168 344.44 92.168C342.584 92.168 341.256 93.544 341.256 95.432C341.256 97.304 342.584 98.664 344.44 98.664C346.328 98.664 347.656 97.304 347.656 95.432ZM350.179 97.32C350.179 93.784 351.843 91.432 354.611 91.432C357.379 91.432 359.043 93.784 359.043 97.32C359.043 100.856 357.379 103.208 354.611 103.208C351.843 103.208 350.179 100.856 350.179 97.32ZM350.931 97.32C350.931 100.408 352.275 102.488 354.611 102.488C356.947 102.488 358.291 100.408 358.291 97.32C358.291 94.232 356.947 92.152 354.611 92.152C352.275 92.152 350.931 94.232 350.931 97.32Z" fill="#EFE7D2"/>
<path d="M6.192 148H1.044V139.408H6.18V140.2H1.908V143.296H5.784V144.076H1.908V147.208H6.192V148ZM9.79834 148H8.94634V139.408H9.79834L12.9303 146.98L16.0623 139.408H16.9263V148H16.0743V143.92C16.0743 142.42 16.0983 141.76 16.1463 141.172L13.3503 148H12.5223L9.72634 141.208C9.77434 141.532 9.79834 142.48 9.79834 143.788V148ZM20.0128 148H19.1368L22.2928 139.408H23.3608L26.5528 148H25.6528L24.8128 145.72H20.8528L20.0128 148ZM22.7128 140.62L21.1168 144.964H24.5368L22.9288 140.62C22.8928 140.5 22.8328 140.356 22.8208 140.272C22.8088 140.344 22.7608 140.5 22.7128 140.62ZM29.6111 139.408V148H28.7471V139.408H29.6111ZM33.5643 139.408V147.208H37.5123V148H32.7003V139.408H33.5643Z" fill="#EFE7D2"/>
<path d="M223.93 156.192C221.706 156.192 220.234 154.592 220.234 152.176C220.234 149.776 221.69 148.128 223.834 148.128C225.834 148.128 227.21 149.568 227.21 151.664V152.176H220.97C221.034 154.272 222.122 155.52 223.93 155.52C225.29 155.52 226.154 154.928 226.458 153.792H227.21C226.762 155.376 225.658 156.192 223.93 156.192ZM223.834 148.8C222.266 148.8 221.162 149.888 220.986 151.568H226.458C226.458 149.904 225.418 148.8 223.834 148.8ZM229.796 156H229.06V148.32H229.652L229.764 149.504C230.164 148.624 231.044 148.128 232.116 148.128C233.348 148.128 234.292 148.8 234.628 149.856C234.964 148.8 235.892 148.128 237.172 148.128C238.756 148.128 239.892 149.184 239.892 150.976V156H239.188V151.072C239.188 149.664 238.388 148.8 237.108 148.8C235.652 148.8 234.852 149.936 234.852 151.088V156H234.132V151.056C234.132 149.648 233.332 148.8 232.052 148.8C230.596 148.8 229.796 149.92 229.796 151.072V156ZM244.408 156.192C242.76 156.192 241.816 155.28 241.816 153.968C241.816 152.56 242.904 151.664 244.696 151.52L247.336 151.312V151.024C247.336 149.296 246.312 148.8 245.096 148.8C243.672 148.8 242.824 149.472 242.824 150.592H242.088C242.088 149.088 243.304 148.128 245.112 148.128C246.76 148.128 248.072 148.928 248.072 150.912V156H247.48L247.336 154.56C246.808 155.6 245.736 156.192 244.408 156.192ZM244.504 155.536C246.312 155.536 247.336 154.224 247.336 152.336V151.92L244.76 152.128C243.208 152.256 242.552 153.008 242.552 153.952C242.552 155.008 243.352 155.536 244.504 155.536ZM250.772 145.968C250.404 145.968 250.1 145.664 250.1 145.312C250.1 144.944 250.404 144.624 250.772 144.624C251.124 144.624 251.444 144.944 251.444 145.312C251.444 145.664 251.124 145.968 250.772 145.968ZM250.404 156V148.32H251.14V156H250.404ZM254.375 156H253.639V144.448H254.375V156ZM259.704 152.512C259.704 151.248 260.712 150.384 262.392 150.256L264.84 150.064V149.792C264.84 148.432 264.152 147.76 262.76 147.76C261.464 147.76 260.68 148.368 260.68 149.392H259.96C259.96 148.032 261.08 147.12 262.776 147.12C264.52 147.12 265.544 148.064 265.544 149.696V152.992C265.544 153.632 265.928 153.984 266.616 153.984C267.8 153.984 268.6 152.688 268.6 150.768C268.6 147.44 266.168 145.056 262.776 145.056C259.528 145.056 256.968 147.648 256.968 150.928C256.968 154.256 259.496 156.848 262.776 156.848C264.184 156.848 265.496 156.384 266.536 155.504L266.92 155.968C265.768 156.944 264.344 157.456 262.776 157.456C259.112 157.456 256.296 154.624 256.296 150.928C256.296 147.28 259.128 144.448 262.776 144.448C266.568 144.448 269.272 147.072 269.272 150.768C269.272 152.928 268.136 154.56 266.616 154.56C265.512 154.56 264.888 154.032 264.84 153.056C264.344 154.016 263.368 154.56 262.12 154.56C260.648 154.56 259.704 153.76 259.704 152.512ZM260.408 152.512C260.408 153.408 261.064 153.92 262.232 153.92C263.848 153.92 264.84 152.816 264.84 151.008V150.656L262.456 150.848C261.144 150.96 260.408 151.536 260.408 152.512ZM274.242 156.192C272.018 156.192 270.546 154.592 270.546 152.176C270.546 149.776 272.002 148.128 274.146 148.128C276.146 148.128 277.522 149.568 277.522 151.664V152.176H271.282C271.346 154.272 272.434 155.52 274.242 155.52C275.602 155.52 276.466 154.928 276.77 153.792H277.522C277.074 155.376 275.97 156.192 274.242 156.192ZM274.146 148.8C272.578 148.8 271.474 149.888 271.298 151.568H276.77C276.77 149.904 275.73 148.8 274.146 148.8ZM278.978 156H278.082L280.866 152.128L278.098 148.32H278.994L281.378 151.616L283.762 148.32H284.642L281.858 152.16L284.642 156H283.746L281.346 152.688L278.978 156ZM288.189 156.192C286.541 156.192 285.597 155.28 285.597 153.968C285.597 152.56 286.685 151.664 288.477 151.52L291.117 151.312V151.024C291.117 149.296 290.093 148.8 288.877 148.8C287.453 148.8 286.605 149.472 286.605 150.592H285.869C285.869 149.088 287.085 148.128 288.893 148.128C290.541 148.128 291.853 148.928 291.853 150.912V156H291.261L291.117 154.56C290.589 155.6 289.517 156.192 288.189 156.192ZM288.285 155.536C290.093 155.536 291.117 154.224 291.117 152.336V151.92L288.541 152.128C286.989 152.256 286.333 153.008 286.333 153.952C286.333 155.008 287.133 155.536 288.285 155.536ZM294.921 156H294.185V148.32H294.777L294.889 149.504C295.289 148.624 296.169 148.128 297.241 148.128C298.473 148.128 299.417 148.8 299.753 149.856C300.089 148.8 301.017 148.128 302.297 148.128C303.881 148.128 305.017 149.184 305.017 150.976V156H304.313V151.072C304.313 149.664 303.513 148.8 302.233 148.8C300.777 148.8 299.977 149.936 299.977 151.088V156H299.257V151.056C299.257 149.648 298.457 148.8 297.177 148.8C295.721 148.8 294.921 149.92 294.921 151.072V156ZM307.357 159.248V148.32H307.949L308.061 150.048C308.637 148.736 309.741 148.128 311.069 148.128C313.325 148.128 314.605 149.888 314.605 152.16C314.605 154.432 313.325 156.192 311.069 156.192C309.709 156.192 308.653 155.584 308.093 154.336V159.248H307.357ZM308.109 152.16C308.109 154.096 309.149 155.52 310.989 155.52C312.813 155.52 313.853 154.096 313.853 152.16C313.853 150.208 312.813 148.8 310.989 148.8C309.149 148.8 308.109 150.208 308.109 152.16ZM317.266 156H316.53V144.448H317.266V156ZM322.883 156.192C320.659 156.192 319.187 154.592 319.187 152.176C319.187 149.776 320.643 148.128 322.787 148.128C324.787 148.128 326.163 149.568 326.163 151.664V152.176H319.923C319.987 154.272 321.075 155.52 322.883 155.52C324.243 155.52 325.107 154.928 325.411 153.792H326.163C325.715 155.376 324.611 156.192 322.883 156.192ZM322.787 148.8C321.219 148.8 320.115 149.888 319.939 151.568H325.411C325.411 149.904 324.371 148.8 322.787 148.8ZM328.312 156.176C327.833 156.176 327.433 155.776 327.433 155.312C327.433 154.832 327.833 154.432 328.312 154.432C328.793 154.432 329.193 154.832 329.193 155.312C329.193 155.776 328.793 156.176 328.312 156.176ZM330.468 152.192C330.468 149.76 331.908 148.128 334.116 148.128C335.764 148.128 336.996 149.104 337.348 150.56H336.596C336.276 149.424 335.252 148.784 334.116 148.784C332.404 148.784 331.188 150.096 331.188 152.176C331.188 154.16 332.308 155.52 334.02 155.52C335.252 155.52 336.276 154.816 336.628 153.776H337.38C336.964 155.232 335.652 156.192 334.02 156.192C331.908 156.192 330.468 154.592 330.468 152.192ZM338.578 152.16C338.578 149.84 340.194 148.128 342.386 148.128C344.578 148.128 346.194 149.84 346.194 152.16C346.194 154.48 344.578 156.192 342.386 156.192C340.194 156.192 338.578 154.48 338.578 152.16ZM339.33 152.16C339.33 154.128 340.594 155.52 342.386 155.52C344.178 155.52 345.442 154.128 345.442 152.16C345.442 150.192 344.178 148.8 342.386 148.8C340.594 148.8 339.33 150.192 339.33 152.16ZM348.78 156H348.044V148.32H348.636L348.748 149.504C349.148 148.624 350.028 148.128 351.1 148.128C352.332 148.128 353.276 148.8 353.612 149.856C353.948 148.8 354.876 148.128 356.156 148.128C357.74 148.128 358.876 149.184 358.876 150.976V156H358.172V151.072C358.172 149.664 357.372 148.8 356.092 148.8C354.636 148.8 353.836 149.936 353.836 151.088V156H353.116V151.056C353.116 149.648 352.316 148.8 351.036 148.8C349.58 148.8 348.78 149.92 348.78 151.072V156Z" fill="#EFE7D2"/>
<path d="M5.424 197.22H1.908V201H1.044V192.408H6.108V193.2H1.908V196.44H5.424V197.22ZM16.2156 196.704C16.2156 199.308 14.5236 201.144 12.1236 201.144C9.71163 201.144 8.03163 199.308 8.03163 196.704C8.03163 194.1 9.72363 192.252 12.1236 192.252C14.5356 192.252 16.2156 194.088 16.2156 196.704ZM15.3276 196.704C15.3276 194.556 14.0196 193.092 12.1236 193.092C10.2276 193.092 8.93163 194.556 8.93163 196.704C8.93163 198.852 10.2276 200.316 12.1236 200.316C14.0196 200.316 15.3276 198.84 15.3276 196.704ZM19.6463 192.408V200.208H23.5943V201H18.7823V192.408H19.6463ZM26.7518 192.408V200.208H30.6998V201H25.8878V192.408H26.7518ZM40.2273 196.704C40.2273 199.308 38.5353 201.144 36.1353 201.144C33.7233 201.144 32.0433 199.308 32.0433 196.704C32.0433 194.1 33.7353 192.252 36.1353 192.252C38.5473 192.252 40.2273 194.088 40.2273 196.704ZM39.3393 196.704C39.3393 194.556 38.0313 193.092 36.1353 193.092C34.2393 193.092 32.9433 194.556 32.9433 196.704C32.9433 198.852 34.2393 200.316 36.1353 200.316C38.0313 200.316 39.3393 198.84 39.3393 196.704ZM44.2165 201L41.6605 192.408H42.5605L44.3005 198.312C44.4205 198.732 44.5285 199.164 44.6365 199.728C44.7805 199.104 44.9005 198.732 45.0325 198.312L46.9045 192.408H47.8045L49.6765 198.312C49.8085 198.744 49.9285 199.176 50.0605 199.728C50.1925 199.068 50.3005 198.648 50.3965 198.324L52.1725 192.408H53.0485L50.4685 201H49.6525L47.3485 193.704L45.0445 201H44.2165Z" fill="#EFE7D2"/>
<path d="M298.172 197C298.172 195.582 297.751 194.195 296.963 193.016C296.175 191.836 295.055 190.917 293.745 190.374C292.434 189.831 290.992 189.689 289.601 189.966C288.21 190.243 286.932 190.926 285.929 191.929C284.926 192.932 284.243 194.21 283.966 195.601C283.689 196.992 283.831 198.434 284.374 199.745C284.917 201.055 285.836 202.175 287.016 202.963C288.195 203.751 289.582 204.172 291 204.172C292.902 204.17 294.725 203.414 296.069 202.069C297.414 200.725 298.17 198.902 298.172 197ZM291.422 203.314V198.547H293.25C293.362 198.547 293.469 198.502 293.548 198.423C293.627 198.344 293.672 198.237 293.672 198.125C293.672 198.013 293.627 197.906 293.548 197.827C293.469 197.748 293.362 197.703 293.25 197.703H291.422V195.875C291.424 195.54 291.558 195.219 291.795 194.982C292.032 194.745 292.352 194.611 292.688 194.609H293.813C293.924 194.609 294.032 194.565 294.111 194.486C294.19 194.407 294.234 194.299 294.234 194.188C294.234 194.076 294.19 193.968 294.111 193.889C294.032 193.81 293.924 193.766 293.813 193.766H292.688C292.129 193.767 291.593 193.99 291.198 194.385C290.803 194.781 290.58 195.316 290.578 195.875V197.703H288.75C288.638 197.703 288.531 197.748 288.452 197.827C288.373 197.906 288.328 198.013 288.328 198.125C288.328 198.237 288.373 198.344 288.452 198.423C288.531 198.502 288.638 198.547 288.75 198.547H290.578V203.314C288.94 203.205 287.409 202.463 286.307 201.245C285.206 200.028 284.621 198.43 284.675 196.789C284.73 195.148 285.42 193.593 286.601 192.451C287.781 191.31 289.358 190.672 291 190.672C292.642 190.672 294.219 191.31 295.399 192.451C296.58 193.593 297.27 195.148 297.325 196.789C297.379 198.43 296.794 200.028 295.693 201.245C294.591 202.463 293.06 203.205 291.422 203.314Z" fill="#EFE7D2"/>
<path d="M321 193.766C320.36 193.766 319.735 193.955 319.203 194.311C318.671 194.666 318.257 195.171 318.012 195.762C317.767 196.353 317.703 197.004 317.828 197.631C317.953 198.258 318.261 198.835 318.713 199.287C319.165 199.739 319.742 200.047 320.369 200.172C320.996 200.297 321.647 200.233 322.238 199.988C322.829 199.743 323.334 199.329 323.689 198.797C324.045 198.265 324.234 197.64 324.234 197C324.234 196.142 323.894 195.32 323.287 194.713C322.68 194.106 321.858 193.766 321 193.766ZM321 199.391C320.527 199.391 320.065 199.25 319.672 198.988C319.279 198.725 318.972 198.352 318.791 197.915C318.61 197.478 318.563 196.997 318.655 196.534C318.748 196.07 318.975 195.644 319.31 195.31C319.644 194.975 320.07 194.748 320.534 194.655C320.997 194.563 321.478 194.61 321.915 194.791C322.352 194.972 322.725 195.279 322.988 195.672C323.25 196.065 323.391 196.527 323.391 197C323.389 197.633 323.136 198.24 322.688 198.688C322.24 199.136 321.633 199.389 321 199.391ZM324.094 190.109H317.906C316.899 190.109 315.934 190.509 315.221 191.221C314.509 191.934 314.109 192.899 314.109 193.906V200.094C314.109 201.101 314.509 202.066 315.221 202.779C315.934 203.491 316.899 203.891 317.906 203.891H324.094C325.101 203.891 326.066 203.491 326.779 202.779C327.491 202.066 327.891 201.101 327.891 200.094V193.906C327.891 192.899 327.491 191.934 326.779 191.221C326.066 190.509 325.101 190.109 324.094 190.109ZM327.047 200.094C327.047 200.877 326.736 201.628 326.182 202.182C325.628 202.736 324.877 203.047 324.094 203.047H317.906C317.123 203.047 316.372 202.736 315.818 202.182C315.264 201.628 314.953 200.877 314.953 200.094V193.906C314.953 193.123 315.264 192.372 315.818 191.818C316.372 191.264 317.123 190.953 317.906 190.953H324.094C324.877 190.953 325.628 191.264 326.182 191.818C326.736 192.372 327.047 193.123 327.047 193.906V200.094ZM325.359 193.344C325.359 193.483 325.318 193.619 325.241 193.734C325.164 193.85 325.054 193.94 324.925 193.993C324.797 194.047 324.655 194.06 324.519 194.033C324.383 194.006 324.257 193.939 324.159 193.841C324.061 193.743 323.994 193.617 323.967 193.481C323.94 193.345 323.953 193.203 324.007 193.075C324.06 192.946 324.15 192.836 324.266 192.759C324.381 192.682 324.517 192.641 324.656 192.641C324.843 192.641 325.022 192.715 325.153 192.847C325.285 192.978 325.359 193.157 325.359 193.344Z" fill="#EFE7D2"/>
<path d="M359.262 192.901C359.23 192.824 359.177 192.759 359.108 192.712C359.039 192.666 358.958 192.641 358.875 192.641H356.653C356.379 192.136 355.975 191.714 355.483 191.417C354.991 191.121 354.429 190.961 353.855 190.953C352.992 190.949 352.163 191.288 351.549 191.894C350.935 192.5 350.586 193.325 350.578 194.187V194.799C347.597 194.089 345.136 191.663 345.108 191.642C345.054 191.589 344.986 191.551 344.912 191.533C344.838 191.515 344.761 191.517 344.688 191.539C344.615 191.561 344.55 191.603 344.499 191.66C344.448 191.716 344.413 191.785 344.398 191.86C343.786 195.207 344.792 197.443 345.741 198.73C346.244 199.419 346.863 200.016 347.569 200.495C346.479 201.816 344.686 202.505 344.665 202.512C344.605 202.535 344.551 202.57 344.507 202.616C344.463 202.663 344.431 202.719 344.412 202.78C344.392 202.839 344.386 202.903 344.395 202.965C344.403 203.027 344.426 203.086 344.461 203.138C344.531 203.244 345.221 204.172 347.625 204.172C352.526 204.172 356.625 200.382 357.019 195.516L359.171 193.358C359.232 193.301 359.273 193.226 359.29 193.144C359.306 193.062 359.296 192.977 359.262 192.901ZM356.309 195.031C356.236 195.104 356.193 195.202 356.189 195.305C355.901 199.805 352.139 203.328 347.625 203.328C346.648 203.328 346.022 203.159 345.649 202.991C346.444 202.59 347.745 201.802 348.539 200.607C348.571 200.557 348.592 200.502 348.602 200.444C348.612 200.386 348.609 200.327 348.596 200.27C348.581 200.211 348.553 200.156 348.516 200.109C348.478 200.062 348.431 200.023 348.378 199.995C348.364 199.995 347.309 199.447 346.395 198.195C345.305 196.705 344.876 194.884 345.115 192.781C346.142 193.653 348.356 195.298 350.93 195.727C350.99 195.739 351.053 195.737 351.112 195.721C351.172 195.705 351.228 195.677 351.275 195.637C351.322 195.597 351.36 195.547 351.385 195.491C351.411 195.435 351.423 195.374 351.422 195.312V194.187C351.428 193.55 351.685 192.941 352.138 192.493C352.592 192.045 353.204 191.795 353.841 191.797C354.301 191.803 354.75 191.942 355.134 192.196C355.518 192.451 355.821 192.81 356.006 193.231C356.039 193.307 356.092 193.372 356.161 193.417C356.23 193.462 356.311 193.485 356.393 193.484H357.856L356.309 195.031Z" fill="#EFE7D2"/>
</svg>
