<svg width="278" height="29" viewBox="0 0 278 29" fill="none" xmlns="http://www.w3.org/2000/svg">
<rect x="0.89363" y="14.5" width="7" height="7" transform="rotate(-45 0.89363 14.5)" stroke="#EFE7D2" stroke-opacity="0.15"/>
<rect x="11.5" y="14" width="20" height="1" fill="#EFE7D2" fill-opacity="0.15"/>
<path d="M56.668 5.92C57.916 5.92 59.036 6.144 60.028 6.592C61.02 7.024 61.86 7.616 62.548 8.368C63.252 9.104 63.788 9.968 64.156 10.96C64.54 11.936 64.732 12.96 64.732 14.032C64.732 15.232 64.508 16.336 64.06 17.344C63.628 18.352 63.028 19.216 62.26 19.936C61.492 20.656 60.596 21.224 59.572 21.64C58.564 22.04 57.484 22.24 56.332 22.24C55.1 22.24 53.988 22.016 52.996 21.568C52.02 21.12 51.188 20.528 50.5 19.792C49.828 19.056 49.308 18.208 48.94 17.248C48.572 16.288 48.388 15.288 48.388 14.248C48.388 13.224 48.572 12.216 48.94 11.224C49.308 10.216 49.844 9.32 50.548 8.536C51.268 7.752 52.14 7.12 53.164 6.64C54.188 6.16 55.356 5.92 56.668 5.92ZM56.644 21.4C57.716 21.352 58.652 21.112 59.452 20.68C60.268 20.232 60.948 19.672 61.492 19C62.036 18.312 62.436 17.56 62.692 16.744C62.964 15.928 63.1 15.12 63.1 14.32C63.1 13.44 62.94 12.552 62.62 11.656C62.3 10.76 61.844 9.952 61.252 9.232C60.66 8.496 59.948 7.904 59.116 7.456C58.3 6.992 57.38 6.76 56.356 6.76C55.364 6.76 54.476 6.984 53.692 7.432C52.908 7.864 52.236 8.424 51.676 9.112C51.132 9.8 50.716 10.568 50.428 11.416C50.14 12.264 49.996 13.096 49.996 13.912C49.996 14.792 50.164 15.68 50.5 16.576C50.836 17.456 51.3 18.256 51.892 18.976C52.484 19.696 53.18 20.28 53.98 20.728C54.796 21.176 55.684 21.4 56.644 21.4ZM67.8138 6.16H71.2218C72.9978 6.16 74.3418 6.504 75.2538 7.192C76.1818 7.864 76.6458 8.824 76.6458 10.072C76.6458 10.744 76.4858 11.344 76.1658 11.872C75.8458 12.4 75.4218 12.848 74.8938 13.216C74.3818 13.568 73.7978 13.84 73.1418 14.032C72.5018 14.224 71.8618 14.32 71.2218 14.32H70.3098V20.44C70.3098 20.568 70.3258 20.712 70.3578 20.872C70.3898 21.016 70.4378 21.152 70.5018 21.28C70.5818 21.408 70.6618 21.52 70.7418 21.616C70.8378 21.712 70.9498 21.76 71.0778 21.76H71.1978V22H67.8138V21.76H67.9338C68.0458 21.76 68.1498 21.712 68.2458 21.616C68.3418 21.52 68.4218 21.408 68.4858 21.28C68.5498 21.152 68.5978 21.016 68.6298 20.872C68.6618 20.712 68.6778 20.568 68.6778 20.44V7.648C68.6778 7.424 68.6138 7.168 68.4858 6.88C68.3578 6.592 68.1738 6.432 67.9338 6.4H67.8138V6.16ZM70.3098 7V13.48H71.0298C71.6698 13.48 72.2378 13.392 72.7338 13.216C73.2458 13.04 73.6698 12.808 74.0058 12.52C74.3418 12.232 74.5978 11.904 74.7738 11.536C74.9498 11.168 75.0378 10.792 75.0378 10.408C75.0378 9.944 74.9578 9.512 74.7978 9.112C74.6538 8.696 74.4058 8.336 74.0538 8.032C73.7178 7.712 73.2698 7.464 72.7098 7.288C72.1498 7.096 71.4618 7 70.6458 7H70.3098ZM79.6894 21.76H79.8094C79.9374 21.76 80.0494 21.72 80.1454 21.64C80.2414 21.544 80.3214 21.432 80.3854 21.304C80.4654 21.176 80.5214 21.04 80.5534 20.896C80.6014 20.752 80.6254 20.616 80.6254 20.488V7.648C80.6254 7.536 80.6014 7.408 80.5534 7.264C80.5214 7.12 80.4654 6.984 80.3854 6.856C80.3214 6.728 80.2414 6.624 80.1454 6.544C80.0494 6.448 79.9374 6.4 79.8094 6.4H79.6894V6.16H88.9294V8.392H88.6894C88.6574 8.024 88.5134 7.704 88.2574 7.432C88.0014 7.144 87.6014 7 87.0574 7H82.2334V13.072H86.2174C86.5854 13.072 86.8894 12.96 87.1294 12.736C87.3854 12.512 87.5134 12.248 87.5134 11.944H87.7534V14.944H87.5134C87.5134 14.656 87.3934 14.408 87.1534 14.2C86.9134 13.992 86.6014 13.888 86.2174 13.888H82.2334V21.16H87.4894C87.7934 21.16 88.0574 21.088 88.2814 20.944C88.5054 20.8 88.6894 20.632 88.8334 20.44C88.9934 20.232 89.1054 20.016 89.1694 19.792C89.2494 19.552 89.2894 19.352 89.2894 19.192H89.5294V22H79.6894V21.76ZM94.8578 21.76H94.9778V22H92.3138V21.76H92.4338C92.5458 21.76 92.6498 21.712 92.7458 21.616C92.8578 21.52 92.9458 21.408 93.0098 21.28C93.0738 21.152 93.1218 21.016 93.1538 20.872C93.2018 20.712 93.2258 20.568 93.2258 20.44V7.648C93.2258 7.536 93.2098 7.408 93.1778 7.264C93.1618 7.12 93.1218 6.984 93.0578 6.856C92.9938 6.728 92.9058 6.624 92.7938 6.544C92.6818 6.448 92.5458 6.4 92.3858 6.4H92.2658V6.16H94.6898L103.402 19.888V7.648C103.402 7.536 103.378 7.408 103.33 7.264C103.298 7.12 103.242 6.984 103.162 6.856C103.098 6.728 103.018 6.624 102.922 6.544C102.826 6.448 102.714 6.4 102.586 6.4H102.466V6.16H105.154V6.4H105.034C104.906 6.4 104.794 6.448 104.698 6.544C104.602 6.624 104.514 6.728 104.434 6.856C104.37 6.984 104.322 7.12 104.29 7.264C104.258 7.408 104.242 7.536 104.242 7.648V22H102.754L94.0658 8.224V20.44C94.0658 20.568 94.0818 20.712 94.1138 20.872C94.1458 21.016 94.1938 21.152 94.2578 21.28C94.3378 21.408 94.4258 21.52 94.5218 21.616C94.6178 21.712 94.7298 21.76 94.8578 21.76ZM108.504 6.16H111.936V6.4H111.816C111.704 6.4 111.6 6.448 111.504 6.544C111.408 6.624 111.328 6.728 111.264 6.856C111.2 6.968 111.144 7.104 111.096 7.264C111.064 7.408 111.048 7.536 111.048 7.648V20.44C111.048 20.568 111.064 20.712 111.096 20.872C111.128 21.016 111.176 21.152 111.24 21.28C111.32 21.408 111.4 21.52 111.48 21.616C111.576 21.712 111.688 21.76 111.816 21.76H111.936V22H108.504V21.76H108.624C108.752 21.76 108.864 21.72 108.96 21.64C109.056 21.544 109.136 21.432 109.2 21.304C109.28 21.16 109.336 21.016 109.368 20.872C109.4 20.712 109.416 20.568 109.416 20.44V7.648C109.416 7.536 109.4 7.408 109.368 7.264C109.336 7.12 109.28 6.984 109.2 6.856C109.136 6.728 109.056 6.624 108.96 6.544C108.864 6.448 108.752 6.4 108.624 6.4H108.504V6.16ZM117.764 21.76H117.884V22H115.22V21.76H115.34C115.452 21.76 115.556 21.712 115.652 21.616C115.764 21.52 115.852 21.408 115.916 21.28C115.98 21.152 116.028 21.016 116.06 20.872C116.108 20.712 116.132 20.568 116.132 20.44V7.648C116.132 7.536 116.116 7.408 116.084 7.264C116.068 7.12 116.028 6.984 115.964 6.856C115.9 6.728 115.812 6.624 115.7 6.544C115.588 6.448 115.452 6.4 115.292 6.4H115.172V6.16H117.596L126.308 19.888V7.648C126.308 7.536 126.284 7.408 126.236 7.264C126.204 7.12 126.148 6.984 126.068 6.856C126.004 6.728 125.924 6.624 125.828 6.544C125.732 6.448 125.62 6.4 125.492 6.4H125.372V6.16H128.06V6.4H127.94C127.812 6.4 127.7 6.448 127.604 6.544C127.508 6.624 127.42 6.728 127.34 6.856C127.276 6.984 127.228 7.12 127.196 7.264C127.164 7.408 127.148 7.536 127.148 7.648V22H125.66L116.972 8.224V20.44C116.972 20.568 116.988 20.712 117.02 20.872C117.052 21.016 117.1 21.152 117.164 21.28C117.244 21.408 117.332 21.52 117.428 21.616C117.524 21.712 117.636 21.76 117.764 21.76ZM141.634 13.648H145.066V13.888H144.946C144.818 13.888 144.706 13.936 144.61 14.032C144.514 14.112 144.434 14.216 144.37 14.344C144.306 14.472 144.25 14.608 144.202 14.752C144.17 14.896 144.154 15.024 144.154 15.136V21.568C143.866 21.68 143.538 21.776 143.17 21.856C142.802 21.936 142.418 22 142.018 22.048C141.618 22.112 141.21 22.16 140.794 22.192C140.378 22.224 139.994 22.24 139.642 22.24C138.202 22.24 136.946 22 135.874 21.52C134.802 21.04 133.914 20.416 133.21 19.648C132.506 18.864 131.978 17.984 131.626 17.008C131.29 16.032 131.122 15.048 131.122 14.056C131.122 13.064 131.29 12.08 131.626 11.104C131.978 10.128 132.506 9.256 133.21 8.488C133.93 7.72 134.826 7.104 135.898 6.64C136.986 6.16 138.274 5.92 139.762 5.92C140.322 5.92 140.842 5.968 141.322 6.064C141.802 6.16 142.226 6.248 142.594 6.328C142.802 6.376 142.978 6.424 143.122 6.472C143.282 6.504 143.418 6.52 143.53 6.52H143.746V9.064H143.506C143.41 8.568 143.218 8.168 142.93 7.864C142.658 7.56 142.338 7.328 141.97 7.168C141.602 7.008 141.21 6.904 140.794 6.856C140.394 6.792 140.018 6.76 139.666 6.76C138.466 6.76 137.426 6.976 136.546 7.408C135.666 7.824 134.946 8.368 134.386 9.04C133.826 9.712 133.41 10.472 133.138 11.32C132.866 12.152 132.73 12.984 132.73 13.816C132.73 14.744 132.906 15.664 133.258 16.576C133.61 17.472 134.106 18.28 134.746 19C135.386 19.704 136.154 20.28 137.05 20.728C137.962 21.16 138.97 21.376 140.074 21.376C140.378 21.376 140.754 21.344 141.202 21.28C141.65 21.2 142.098 21.032 142.546 20.776V15.136C142.546 15.024 142.53 14.896 142.498 14.752C142.466 14.608 142.41 14.472 142.33 14.344C142.266 14.216 142.186 14.112 142.09 14.032C141.994 13.936 141.882 13.888 141.754 13.888H141.634V13.648ZM164.898 21.76H165.018C165.13 21.76 165.234 21.72 165.33 21.64C165.426 21.544 165.506 21.432 165.57 21.304C165.65 21.16 165.706 21.016 165.738 20.872C165.77 20.712 165.786 20.568 165.786 20.44V13.912H158.106V20.44C158.106 20.568 158.122 20.712 158.154 20.872C158.186 21.016 158.234 21.152 158.298 21.28C158.362 21.408 158.434 21.52 158.514 21.616C158.61 21.712 158.722 21.76 158.85 21.76H158.97V22H155.61V21.76H155.73C155.842 21.76 155.946 21.72 156.042 21.64C156.138 21.544 156.218 21.432 156.282 21.304C156.362 21.16 156.418 21.016 156.45 20.872C156.482 20.712 156.498 20.568 156.498 20.44V7.648C156.498 7.536 156.482 7.408 156.45 7.264C156.418 7.12 156.37 6.984 156.306 6.856C156.242 6.728 156.162 6.624 156.066 6.544C155.97 6.448 155.858 6.4 155.73 6.4H155.61V6.16H158.97V6.4H158.85C158.722 6.4 158.61 6.448 158.514 6.544C158.418 6.624 158.338 6.728 158.274 6.856C158.226 6.984 158.186 7.12 158.154 7.264C158.122 7.408 158.106 7.536 158.106 7.648V13.072H165.786V7.648C165.786 7.536 165.77 7.408 165.738 7.264C165.706 7.12 165.658 6.984 165.594 6.856C165.53 6.728 165.45 6.624 165.354 6.544C165.258 6.448 165.146 6.4 165.018 6.4H164.898V6.16H168.258V6.4H168.138C168.01 6.4 167.898 6.448 167.802 6.544C167.706 6.624 167.626 6.728 167.562 6.856C167.514 6.984 167.474 7.12 167.442 7.264C167.41 7.408 167.394 7.536 167.394 7.648V20.44C167.394 20.568 167.41 20.712 167.442 20.872C167.49 21.016 167.546 21.152 167.61 21.28C167.674 21.408 167.746 21.52 167.826 21.616C167.922 21.712 168.026 21.76 168.138 21.76H168.258V22H164.898V21.76ZM179.34 5.92C180.588 5.92 181.708 6.144 182.7 6.592C183.692 7.024 184.532 7.616 185.22 8.368C185.924 9.104 186.46 9.968 186.828 10.96C187.212 11.936 187.404 12.96 187.404 14.032C187.404 15.232 187.18 16.336 186.732 17.344C186.3 18.352 185.7 19.216 184.932 19.936C184.164 20.656 183.268 21.224 182.244 21.64C181.236 22.04 180.156 22.24 179.004 22.24C177.772 22.24 176.66 22.016 175.668 21.568C174.692 21.12 173.86 20.528 173.172 19.792C172.5 19.056 171.98 18.208 171.612 17.248C171.244 16.288 171.06 15.288 171.06 14.248C171.06 13.224 171.244 12.216 171.612 11.224C171.98 10.216 172.516 9.32 173.22 8.536C173.94 7.752 174.812 7.12 175.836 6.64C176.86 6.16 178.028 5.92 179.34 5.92ZM179.316 21.4C180.388 21.352 181.324 21.112 182.124 20.68C182.94 20.232 183.62 19.672 184.164 19C184.708 18.312 185.108 17.56 185.364 16.744C185.636 15.928 185.772 15.12 185.772 14.32C185.772 13.44 185.612 12.552 185.292 11.656C184.972 10.76 184.516 9.952 183.924 9.232C183.332 8.496 182.62 7.904 181.788 7.456C180.972 6.992 180.052 6.76 179.028 6.76C178.036 6.76 177.148 6.984 176.364 7.432C175.58 7.864 174.908 8.424 174.348 9.112C173.804 9.8 173.388 10.568 173.1 11.416C172.812 12.264 172.668 13.096 172.668 13.912C172.668 14.792 172.836 15.68 173.172 16.576C173.508 17.456 173.972 18.256 174.564 18.976C175.156 19.696 175.852 20.28 176.652 20.728C177.468 21.176 178.356 21.4 179.316 21.4ZM190.51 6.16H193.918V6.4H193.798C193.67 6.4 193.558 6.448 193.462 6.544C193.366 6.624 193.278 6.728 193.198 6.856C193.134 6.984 193.086 7.12 193.054 7.264C193.022 7.408 193.006 7.536 193.006 7.648V17.128C193.006 17.752 193.07 18.328 193.198 18.856C193.326 19.384 193.542 19.84 193.846 20.224C194.15 20.608 194.55 20.912 195.046 21.136C195.542 21.344 196.15 21.448 196.87 21.448C197.67 21.448 198.31 21.32 198.79 21.064C199.27 20.808 199.638 20.48 199.894 20.08C200.15 19.664 200.318 19.2 200.398 18.688C200.478 18.176 200.518 17.672 200.518 17.176V7.648C200.518 7.536 200.502 7.408 200.47 7.264C200.438 7.12 200.382 6.984 200.302 6.856C200.238 6.728 200.158 6.624 200.062 6.544C199.966 6.448 199.862 6.4 199.75 6.4H199.63V6.16H202.246V6.4H202.126C201.998 6.4 201.886 6.448 201.79 6.544C201.71 6.624 201.63 6.728 201.55 6.856C201.486 6.984 201.438 7.12 201.406 7.264C201.374 7.408 201.358 7.536 201.358 7.648V17.104C201.358 18.144 201.23 19 200.974 19.672C200.718 20.328 200.366 20.848 199.918 21.232C199.47 21.616 198.942 21.88 198.334 22.024C197.742 22.168 197.11 22.24 196.438 22.24C195.718 22.24 195.046 22.16 194.422 22C193.814 21.856 193.286 21.592 192.838 21.208C192.39 20.824 192.038 20.304 191.782 19.648C191.526 18.976 191.398 18.136 191.398 17.128V7.648C191.398 7.536 191.382 7.408 191.35 7.264C191.318 7.12 191.262 6.984 191.182 6.856C191.118 6.728 191.038 6.624 190.942 6.544C190.846 6.448 190.742 6.4 190.63 6.4H190.51V6.16ZM208.789 21.76H208.909V22H205.525V21.76H205.645C205.757 21.76 205.861 21.712 205.957 21.616C206.053 21.52 206.133 21.408 206.197 21.28C206.277 21.152 206.333 21.016 206.365 20.872C206.397 20.712 206.413 20.568 206.413 20.44V7.648C206.413 7.536 206.397 7.408 206.365 7.264C206.333 7.12 206.277 6.984 206.197 6.856C206.133 6.728 206.053 6.624 205.957 6.544C205.861 6.448 205.757 6.4 205.645 6.4H205.525V6.16H209.701C211.301 6.16 212.533 6.472 213.397 7.096C214.277 7.72 214.717 8.64 214.717 9.856C214.717 10.464 214.613 11 214.405 11.464C214.213 11.912 213.949 12.304 213.613 12.64C213.277 12.96 212.877 13.224 212.413 13.432C211.965 13.624 211.485 13.768 210.973 13.864L212.701 16.504C213.117 17.144 213.541 17.776 213.973 18.4C214.405 19.008 214.829 19.64 215.245 20.296C215.357 20.456 215.477 20.624 215.605 20.8C215.749 20.976 215.893 21.136 216.037 21.28C216.197 21.424 216.357 21.544 216.517 21.64C216.693 21.72 216.869 21.76 217.045 21.76V22H216.013C215.373 22 214.845 21.848 214.429 21.544C214.029 21.224 213.693 20.856 213.421 20.44C212.701 19.384 211.981 18.312 211.261 17.224C210.557 16.136 209.853 15.064 209.149 14.008C208.973 13.992 208.781 13.976 208.573 13.96C208.381 13.928 208.197 13.896 208.021 13.864V20.44C208.021 20.568 208.037 20.712 208.069 20.872C208.101 21.016 208.149 21.152 208.213 21.28C208.293 21.408 208.373 21.52 208.453 21.616C208.549 21.712 208.661 21.76 208.789 21.76ZM208.021 6.976V13.072H208.141C208.269 13.088 208.469 13.104 208.741 13.12C209.029 13.12 209.381 13.12 209.797 13.12C210.133 13.12 210.485 13.072 210.853 12.976C211.237 12.864 211.589 12.688 211.909 12.448C212.245 12.192 212.517 11.864 212.725 11.464C212.949 11.064 213.061 10.56 213.061 9.952C213.061 9.344 212.941 8.848 212.701 8.464C212.477 8.08 212.157 7.776 211.741 7.552C211.341 7.328 210.853 7.176 210.277 7.096C209.701 7.016 209.069 6.976 208.381 6.976H208.021ZM229.206 17.752C229.206 18.552 229.046 19.24 228.726 19.816C228.406 20.376 227.99 20.832 227.478 21.184C226.982 21.536 226.414 21.792 225.774 21.952C225.15 22.112 224.526 22.192 223.902 22.192C223.262 22.192 222.71 22.128 222.246 22C221.782 21.872 221.358 21.752 220.974 21.64C220.718 21.56 220.486 21.496 220.278 21.448C220.07 21.384 219.862 21.352 219.654 21.352V18.616H219.894C219.894 19.224 220.046 19.712 220.35 20.08C220.67 20.432 221.038 20.704 221.454 20.896C221.87 21.088 222.286 21.216 222.702 21.28C223.118 21.328 223.422 21.352 223.614 21.352C224.302 21.352 224.894 21.256 225.39 21.064C225.886 20.856 226.294 20.592 226.614 20.272C226.934 19.936 227.166 19.568 227.31 19.168C227.47 18.768 227.55 18.36 227.55 17.944C227.55 17.416 227.438 16.976 227.214 16.624C226.99 16.256 226.694 15.936 226.326 15.664C225.974 15.392 225.566 15.16 225.102 14.968C224.638 14.776 224.166 14.584 223.686 14.392C223.142 14.184 222.606 13.968 222.078 13.744C221.55 13.52 221.078 13.248 220.662 12.928C220.246 12.592 219.91 12.2 219.654 11.752C219.398 11.288 219.27 10.72 219.27 10.048C219.27 9.344 219.406 8.736 219.678 8.224C219.95 7.696 220.31 7.264 220.758 6.928C221.222 6.592 221.742 6.344 222.318 6.184C222.91 6.008 223.51 5.92 224.118 5.92C224.534 5.92 224.926 5.952 225.294 6.016C225.662 6.064 226.014 6.128 226.35 6.208C226.622 6.272 226.886 6.328 227.142 6.376C227.398 6.408 227.646 6.424 227.886 6.424V8.896H227.646C227.614 8.064 227.286 7.504 226.662 7.216C226.038 6.912 225.174 6.76 224.07 6.76C223.43 6.76 222.902 6.872 222.486 7.096C222.086 7.304 221.766 7.568 221.526 7.888C221.286 8.192 221.118 8.528 221.022 8.896C220.942 9.248 220.902 9.56 220.902 9.832C220.902 10.28 220.998 10.664 221.19 10.984C221.398 11.304 221.67 11.584 222.006 11.824C222.342 12.064 222.726 12.28 223.158 12.472C223.606 12.664 224.07 12.848 224.55 13.024C225.094 13.232 225.646 13.456 226.206 13.696C226.766 13.936 227.262 14.232 227.694 14.584C228.142 14.936 228.502 15.368 228.774 15.88C229.062 16.392 229.206 17.016 229.206 17.752Z" fill="#EFE7D2"/>
<rect x="246.5" y="14" width="20" height="1" fill="#EFE7D2" fill-opacity="0.15"/>
<rect x="267.207" y="14.5" width="7" height="7" transform="rotate(-45 267.207 14.5)" stroke="#EFE7D2" stroke-opacity="0.15"/>
</svg>
