<svg width="360" height="255" viewBox="0 0 360 255" fill="none" xmlns="http://www.w3.org/2000/svg">
<path d="M2.208 21.5H1.44V10.14H2.208L6.56 20.572L10.896 10.14H11.68V21.5H10.912V15.276C10.912 13.42 10.944 12.46 10.992 11.708L6.944 21.5H6.176L2.128 11.756C2.16 12.076 2.208 13.404 2.208 15.276V21.5ZM13.765 17.66C13.765 15.34 15.381 13.628 17.573 13.628C19.765 13.628 21.381 15.34 21.381 17.66C21.381 19.98 19.765 21.692 17.573 21.692C15.381 21.692 13.765 19.98 13.765 17.66ZM14.517 17.66C14.517 19.628 15.781 21.02 17.573 21.02C19.365 21.02 20.629 19.628 20.629 17.66C20.629 15.692 19.365 14.3 17.573 14.3C15.781 14.3 14.517 15.692 14.517 17.66ZM23.9676 21.5H23.2316V13.82H23.8236L23.9836 15.308C24.4956 14.236 25.5516 13.628 26.7036 13.628C28.8796 13.628 29.6956 14.908 29.6956 16.828V21.5H28.9596V16.972C28.9596 14.94 28.0796 14.3 26.6876 14.3C24.9436 14.3 23.9676 15.596 23.9676 17.532V21.5ZM34.9885 21.692C32.7325 21.692 31.4525 19.932 31.4525 17.66C31.4525 15.388 32.7325 13.628 34.9885 13.628C36.3485 13.628 37.4045 14.236 37.9645 15.484V9.948H38.7005V21.5H38.1085L37.9965 19.772C37.4205 21.084 36.3165 21.692 34.9885 21.692ZM35.0685 21.02C36.9085 21.02 37.9485 19.612 37.9485 17.66C37.9485 15.724 36.9085 14.3 35.0685 14.3C33.2445 14.3 32.2045 15.724 32.2045 17.66C32.2045 19.612 33.2445 21.02 35.0685 21.02ZM43.3139 21.692C41.6659 21.692 40.7219 20.78 40.7219 19.468C40.7219 18.06 41.8099 17.164 43.6019 17.02L46.2419 16.812V16.524C46.2419 14.796 45.2179 14.3 44.0019 14.3C42.5779 14.3 41.7299 14.972 41.7299 16.092H40.9939C40.9939 14.588 42.2099 13.628 44.0179 13.628C45.6659 13.628 46.9779 14.428 46.9779 16.412V21.5H46.3859L46.2419 20.06C45.7139 21.1 44.6419 21.692 43.3139 21.692ZM43.4099 21.036C45.2179 21.036 46.2419 19.724 46.2419 17.836V17.42L43.6659 17.628C42.1139 17.756 41.4579 18.508 41.4579 19.452C41.4579 20.508 42.2579 21.036 43.4099 21.036ZM48.3215 24.748V24.156H49.0415C49.6655 24.156 50.4335 24.156 50.8335 23.068L51.2175 22.028L48.0975 13.82H48.8655L51.5695 21.02L54.1615 13.82H54.9135L51.5055 23.276C51.1055 24.38 50.4015 24.844 49.3615 24.844C48.9455 24.844 48.6415 24.812 48.3215 24.748Z" fill="#EFE7D2"/>
<rect x="72.25" y="24.75" width="173.5" height="0.5" stroke="#EFE7D2" stroke-opacity="0.15" stroke-width="0.5" stroke-dasharray="2 2"/>
<path d="M264.8 10.844H262.56V10.14H265.552V21.5H264.8V10.844ZM269.018 14.188L272.026 10.14H272.938L269.77 14.332C270.506 13.884 271.05 13.756 271.706 13.756C274.074 13.756 275.642 15.516 275.642 17.708C275.642 19.98 273.898 21.692 271.69 21.692C269.482 21.692 267.706 19.948 267.706 17.708C267.706 16.412 268.026 15.516 269.018 14.188ZM268.474 17.708C268.474 19.596 269.802 20.972 271.69 20.972C273.546 20.972 274.874 19.596 274.874 17.708C274.874 15.836 273.546 14.476 271.69 14.476C269.802 14.476 268.474 15.836 268.474 17.708ZM278.598 15.404C278.118 15.404 277.718 15.004 277.718 14.54C277.718 14.06 278.118 13.66 278.598 13.66C279.078 13.66 279.478 14.06 279.478 14.54C279.478 15.004 279.078 15.404 278.598 15.404ZM278.598 21.676C278.118 21.676 277.718 21.276 277.718 20.812C277.718 20.332 278.118 19.932 278.598 19.932C279.078 19.932 279.478 20.332 279.478 20.812C279.478 21.276 279.078 21.676 278.598 21.676ZM281.71 15.82C281.71 12.284 283.374 9.932 286.142 9.932C288.91 9.932 290.574 12.284 290.574 15.82C290.574 19.356 288.91 21.708 286.142 21.708C283.374 21.708 281.71 19.356 281.71 15.82ZM282.462 15.82C282.462 18.908 283.806 20.988 286.142 20.988C288.478 20.988 289.822 18.908 289.822 15.82C289.822 12.732 288.478 10.652 286.142 10.652C283.806 10.652 282.462 12.732 282.462 15.82ZM292.491 15.82C292.491 12.284 294.155 9.932 296.923 9.932C299.691 9.932 301.355 12.284 301.355 15.82C301.355 19.356 299.691 21.708 296.923 21.708C294.155 21.708 292.491 19.356 292.491 15.82ZM293.243 15.82C293.243 18.908 294.587 20.988 296.923 20.988C299.259 20.988 300.603 18.908 300.603 15.82C300.603 12.732 299.259 10.652 296.923 10.652C294.587 10.652 293.243 12.732 293.243 15.82ZM307.837 17.66V16.988H312.253V17.66H307.837ZM325.797 21.5H318.501V20.86L322.101 17.676C324.437 15.612 324.981 14.796 324.981 13.34C324.981 11.692 323.957 10.668 322.309 10.668C320.613 10.668 319.461 11.916 319.397 13.82H318.629C318.709 11.484 320.181 9.948 322.341 9.948C324.357 9.948 325.749 11.324 325.749 13.292C325.749 14.972 325.061 16.028 322.549 18.236L319.653 20.796H325.797V21.5ZM334.61 21.5H327.314V20.86L330.914 17.676C333.25 15.612 333.794 14.796 333.794 13.34C333.794 11.692 332.77 10.668 331.122 10.668C329.426 10.668 328.274 11.916 328.21 13.82H327.442C327.522 11.484 328.994 9.948 331.154 9.948C333.17 9.948 334.562 11.324 334.562 13.292C334.562 14.972 333.874 16.028 331.362 18.236L328.466 20.796H334.61V21.5ZM337.566 15.404C337.086 15.404 336.686 15.004 336.686 14.54C336.686 14.06 337.086 13.66 337.566 13.66C338.046 13.66 338.446 14.06 338.446 14.54C338.446 15.004 338.046 15.404 337.566 15.404ZM337.566 21.676C337.086 21.676 336.686 21.276 336.686 20.812C336.686 20.332 337.086 19.932 337.566 19.932C338.046 19.932 338.446 20.332 338.446 20.812C338.446 21.276 338.046 21.676 337.566 21.676ZM343.735 15.196H343.031V14.636L346.743 10.844H341.031V10.14H347.783V10.78L344.087 14.54C346.423 14.54 347.991 15.932 347.991 17.996C347.991 20.204 346.423 21.692 344.119 21.692C341.879 21.692 340.471 20.3 340.471 18.108H341.239C341.239 19.884 342.343 20.972 344.119 20.972C346.007 20.972 347.223 19.788 347.223 17.964C347.223 16.22 345.943 15.196 343.735 15.196ZM349.757 15.82C349.757 12.284 351.421 9.932 354.189 9.932C356.957 9.932 358.621 12.284 358.621 15.82C358.621 19.356 356.957 21.708 354.189 21.708C351.421 21.708 349.757 19.356 349.757 15.82ZM350.509 15.82C350.509 18.908 351.853 20.988 354.189 20.988C356.525 20.988 357.869 18.908 357.869 15.82C357.869 12.732 356.525 10.652 354.189 10.652C351.853 10.652 350.509 12.732 350.509 15.82Z" fill="#EFE7D2"/>
<path d="M0.16 55.844V55.14H8.064V55.844H4.496V66.5H3.728V55.844H0.16ZM13.9536 58.82H14.6896V66.5H14.0976L13.9536 65.076C13.5376 66.036 12.4496 66.692 11.1696 66.692C9.32963 66.692 8.38563 65.428 8.38563 63.556V58.804H9.13763V63.364C9.13763 65.332 10.0656 66.02 11.3456 66.02C12.9616 66.02 13.9536 64.9 13.9536 62.916V58.82ZM20.086 66.692C17.862 66.692 16.39 65.092 16.39 62.676C16.39 60.276 17.846 58.628 19.99 58.628C21.99 58.628 23.366 60.068 23.366 62.164V62.676H17.126C17.19 64.772 18.278 66.02 20.086 66.02C21.446 66.02 22.31 65.428 22.614 64.292H23.366C22.918 65.876 21.814 66.692 20.086 66.692ZM19.99 59.3C18.422 59.3 17.318 60.388 17.142 62.068H22.614C22.614 60.404 21.574 59.3 19.99 59.3ZM24.528 64.42H25.248C25.248 65.412 25.984 66.02 27.168 66.02C28.464 66.02 29.264 65.444 29.264 64.5C29.264 63.748 28.896 63.364 27.904 63.108L26.608 62.772C25.296 62.436 24.672 61.7 24.672 60.756C24.672 59.476 25.728 58.628 27.312 58.628C28.896 58.628 29.888 59.476 29.936 60.868H29.216C29.168 59.876 28.464 59.3 27.312 59.3C26.08 59.3 25.408 59.812 25.408 60.756C25.408 61.412 25.856 61.876 26.784 62.116L28.064 62.452C29.408 62.804 30 63.428 30 64.5C30 65.812 28.88 66.692 27.2 66.692C25.568 66.692 24.528 65.812 24.528 64.42ZM34.926 66.692C32.67 66.692 31.39 64.932 31.39 62.66C31.39 60.388 32.67 58.628 34.926 58.628C36.286 58.628 37.342 59.236 37.902 60.484V54.948H38.638V66.5H38.046L37.934 64.772C37.358 66.084 36.254 66.692 34.926 66.692ZM35.006 66.02C36.846 66.02 37.886 64.612 37.886 62.66C37.886 60.724 36.846 59.3 35.006 59.3C33.182 59.3 32.142 60.724 32.142 62.66C32.142 64.612 33.182 66.02 35.006 66.02ZM43.2514 66.692C41.6034 66.692 40.6594 65.78 40.6594 64.468C40.6594 63.06 41.7474 62.164 43.5394 62.02L46.1794 61.812V61.524C46.1794 59.796 45.1554 59.3 43.9394 59.3C42.5154 59.3 41.6674 59.972 41.6674 61.092H40.9314C40.9314 59.588 42.1474 58.628 43.9554 58.628C45.6034 58.628 46.9154 59.428 46.9154 61.412V66.5H46.3234L46.1794 65.06C45.6514 66.1 44.5794 66.692 43.2514 66.692ZM43.3474 66.036C45.1554 66.036 46.1794 64.724 46.1794 62.836V62.42L43.6034 62.628C42.0514 62.756 41.3954 63.508 41.3954 64.452C41.3954 65.508 42.1954 66.036 43.3474 66.036ZM48.259 69.748V69.156H48.979C49.603 69.156 50.371 69.156 50.771 68.068L51.155 67.028L48.035 58.82H48.803L51.507 66.02L54.099 58.82H54.851L51.443 68.276C51.043 69.38 50.339 69.844 49.299 69.844C48.883 69.844 48.579 69.812 48.259 69.748Z" fill="#EFE7D2"/>
<rect x="72.25" y="69.75" width="173.5" height="0.5" stroke="#EFE7D2" stroke-opacity="0.15" stroke-width="0.5" stroke-dasharray="2 2"/>
<path d="M264.8 55.844H262.56V55.14H265.552V66.5H264.8V55.844ZM269.018 59.188L272.026 55.14H272.938L269.77 59.332C270.506 58.884 271.05 58.756 271.706 58.756C274.074 58.756 275.642 60.516 275.642 62.708C275.642 64.98 273.898 66.692 271.69 66.692C269.482 66.692 267.706 64.948 267.706 62.708C267.706 61.412 268.026 60.516 269.018 59.188ZM268.474 62.708C268.474 64.596 269.802 65.972 271.69 65.972C273.546 65.972 274.874 64.596 274.874 62.708C274.874 60.836 273.546 59.476 271.69 59.476C269.802 59.476 268.474 60.836 268.474 62.708ZM278.598 60.404C278.118 60.404 277.718 60.004 277.718 59.54C277.718 59.06 278.118 58.66 278.598 58.66C279.078 58.66 279.478 59.06 279.478 59.54C279.478 60.004 279.078 60.404 278.598 60.404ZM278.598 66.676C278.118 66.676 277.718 66.276 277.718 65.812C277.718 65.332 278.118 64.932 278.598 64.932C279.078 64.932 279.478 65.332 279.478 65.812C279.478 66.276 279.078 66.676 278.598 66.676ZM281.71 60.82C281.71 57.284 283.374 54.932 286.142 54.932C288.91 54.932 290.574 57.284 290.574 60.82C290.574 64.356 288.91 66.708 286.142 66.708C283.374 66.708 281.71 64.356 281.71 60.82ZM282.462 60.82C282.462 63.908 283.806 65.988 286.142 65.988C288.478 65.988 289.822 63.908 289.822 60.82C289.822 57.732 288.478 55.652 286.142 55.652C283.806 55.652 282.462 57.732 282.462 60.82ZM292.491 60.82C292.491 57.284 294.155 54.932 296.923 54.932C299.691 54.932 301.355 57.284 301.355 60.82C301.355 64.356 299.691 66.708 296.923 66.708C294.155 66.708 292.491 64.356 292.491 60.82ZM293.243 60.82C293.243 63.908 294.587 65.988 296.923 65.988C299.259 65.988 300.603 63.908 300.603 60.82C300.603 57.732 299.259 55.652 296.923 55.652C294.587 55.652 293.243 57.732 293.243 60.82ZM307.837 62.66V61.988H312.253V62.66H307.837ZM325.797 66.5H318.501V65.86L322.101 62.676C324.437 60.612 324.981 59.796 324.981 58.34C324.981 56.692 323.957 55.668 322.309 55.668C320.613 55.668 319.461 56.916 319.397 58.82H318.629C318.709 56.484 320.181 54.948 322.341 54.948C324.357 54.948 325.749 56.324 325.749 58.292C325.749 59.972 325.061 61.028 322.549 63.236L319.653 65.796H325.797V66.5ZM334.61 66.5H327.314V65.86L330.914 62.676C333.25 60.612 333.794 59.796 333.794 58.34C333.794 56.692 332.77 55.668 331.122 55.668C329.426 55.668 328.274 56.916 328.21 58.82H327.442C327.522 56.484 328.994 54.948 331.154 54.948C333.17 54.948 334.562 56.324 334.562 58.292C334.562 59.972 333.874 61.028 331.362 63.236L328.466 65.796H334.61V66.5ZM337.566 60.404C337.086 60.404 336.686 60.004 336.686 59.54C336.686 59.06 337.086 58.66 337.566 58.66C338.046 58.66 338.446 59.06 338.446 59.54C338.446 60.004 338.046 60.404 337.566 60.404ZM337.566 66.676C337.086 66.676 336.686 66.276 336.686 65.812C336.686 65.332 337.086 64.932 337.566 64.932C338.046 64.932 338.446 65.332 338.446 65.812C338.446 66.276 338.046 66.676 337.566 66.676ZM343.735 60.196H343.031V59.636L346.743 55.844H341.031V55.14H347.783V55.78L344.087 59.54C346.423 59.54 347.991 60.932 347.991 62.996C347.991 65.204 346.423 66.692 344.119 66.692C341.879 66.692 340.471 65.3 340.471 63.108H341.239C341.239 64.884 342.343 65.972 344.119 65.972C346.007 65.972 347.223 64.788 347.223 62.964C347.223 61.22 345.943 60.196 343.735 60.196ZM349.757 60.82C349.757 57.284 351.421 54.932 354.189 54.932C356.957 54.932 358.621 57.284 358.621 60.82C358.621 64.356 356.957 66.708 354.189 66.708C351.421 66.708 349.757 64.356 349.757 60.82ZM350.509 60.82C350.509 63.908 351.853 65.988 354.189 65.988C356.525 65.988 357.869 63.908 357.869 60.82C357.869 57.732 356.525 55.652 354.189 55.652C351.853 55.652 350.509 57.732 350.509 60.82Z" fill="#EFE7D2"/>
<path d="M3.6 111.5L0.24 100.14H1.04L3.568 108.748C3.712 109.26 3.84 109.804 3.984 110.46C4.176 109.708 4.32 109.26 4.48 108.748L7.248 100.14H8.016L10.8 108.748C10.976 109.276 11.12 109.82 11.28 110.444C11.44 109.66 11.584 109.116 11.696 108.748L14.256 100.14H15.04L11.648 111.5H10.944L7.632 101.26L4.336 111.5H3.6ZM18.8204 111.692C16.5964 111.692 15.1244 110.092 15.1244 107.676C15.1244 105.276 16.5804 103.628 18.7244 103.628C20.7244 103.628 22.1004 105.068 22.1004 107.164V107.676H15.8604C15.9244 109.772 17.0124 111.02 18.8204 111.02C20.1804 111.02 21.0444 110.428 21.3484 109.292H22.1004C21.6524 110.876 20.5484 111.692 18.8204 111.692ZM18.7244 104.3C17.1564 104.3 16.0524 105.388 15.8764 107.068H21.3484C21.3484 105.404 20.3084 104.3 18.7244 104.3ZM26.9104 111.692C24.6544 111.692 23.3744 109.932 23.3744 107.66C23.3744 105.388 24.6544 103.628 26.9104 103.628C28.2704 103.628 29.3264 104.236 29.8864 105.484V99.948H30.6224V111.5H30.0304L29.9184 109.772C29.3424 111.084 28.2384 111.692 26.9104 111.692ZM26.9904 111.02C28.8304 111.02 29.8704 109.612 29.8704 107.66C29.8704 105.724 28.8304 104.3 26.9904 104.3C25.1664 104.3 24.1264 105.724 24.1264 107.66C24.1264 109.612 25.1664 111.02 26.9904 111.02ZM33.7958 111.5H33.0598V103.82H33.6518L33.8118 105.308C34.3238 104.236 35.3798 103.628 36.5318 103.628C38.7078 103.628 39.5238 104.908 39.5238 106.828V111.5H38.7878V106.972C38.7878 104.94 37.9078 104.3 36.5158 104.3C34.7718 104.3 33.7958 105.596 33.7958 107.532V111.5ZM44.9766 111.692C42.7526 111.692 41.2806 110.092 41.2806 107.676C41.2806 105.276 42.7366 103.628 44.8806 103.628C46.8806 103.628 48.2566 105.068 48.2566 107.164V107.676H42.0166C42.0806 109.772 43.1686 111.02 44.9766 111.02C46.3366 111.02 47.2006 110.428 47.5046 109.292H48.2566C47.8086 110.876 46.7046 111.692 44.9766 111.692ZM44.8806 104.3C43.3126 104.3 42.2086 105.388 42.0326 107.068H47.5046C47.5046 105.404 46.4646 104.3 44.8806 104.3ZM49.4186 109.42H50.1386C50.1386 110.412 50.8746 111.02 52.0586 111.02C53.3546 111.02 54.1546 110.444 54.1546 109.5C54.1546 108.748 53.7866 108.364 52.7946 108.108L51.4986 107.772C50.1866 107.436 49.5626 106.7 49.5626 105.756C49.5626 104.476 50.6186 103.628 52.2026 103.628C53.7866 103.628 54.7786 104.476 54.8266 105.868H54.1066C54.0586 104.876 53.3546 104.3 52.2026 104.3C50.9706 104.3 50.2986 104.812 50.2986 105.756C50.2986 106.412 50.7466 106.876 51.6746 107.116L52.9546 107.452C54.2986 107.804 54.8906 108.428 54.8906 109.5C54.8906 110.812 53.7706 111.692 52.0906 111.692C50.4586 111.692 49.4186 110.812 49.4186 109.42ZM59.8166 111.692C57.5606 111.692 56.2806 109.932 56.2806 107.66C56.2806 105.388 57.5606 103.628 59.8166 103.628C61.1766 103.628 62.2326 104.236 62.7926 105.484V99.948H63.5286V111.5H62.9366L62.8246 109.772C62.2486 111.084 61.1446 111.692 59.8166 111.692ZM59.8966 111.02C61.7366 111.02 62.7766 109.612 62.7766 107.66C62.7766 105.724 61.7366 104.3 59.8966 104.3C58.0726 104.3 57.0326 105.724 57.0326 107.66C57.0326 109.612 58.0726 111.02 59.8966 111.02ZM68.142 111.692C66.494 111.692 65.55 110.78 65.55 109.468C65.55 108.06 66.638 107.164 68.43 107.02L71.07 106.812V106.524C71.07 104.796 70.046 104.3 68.83 104.3C67.406 104.3 66.558 104.972 66.558 106.092H65.822C65.822 104.588 67.038 103.628 68.846 103.628C70.494 103.628 71.806 104.428 71.806 106.412V111.5H71.214L71.07 110.06C70.542 111.1 69.47 111.692 68.142 111.692ZM68.238 111.036C70.046 111.036 71.07 109.724 71.07 107.836V107.42L68.494 107.628C66.942 107.756 66.286 108.508 66.286 109.452C66.286 110.508 67.086 111.036 68.238 111.036ZM73.1496 114.748V114.156H73.8696C74.4936 114.156 75.2616 114.156 75.6616 113.068L76.0456 112.028L72.9256 103.82H73.6936L76.3976 111.02L78.9896 103.82H79.7416L76.3336 113.276C75.9336 114.38 75.2296 114.844 74.1896 114.844C73.7736 114.844 73.4696 114.812 73.1496 114.748Z" fill="#EFE7D2"/>
<rect x="96.25" y="114.75" width="149.5" height="0.5" stroke="#EFE7D2" stroke-opacity="0.15" stroke-width="0.5" stroke-dasharray="2 2"/>
<path d="M264.8 100.844H262.56V100.14H265.552V111.5H264.8V100.844ZM269.018 104.188L272.026 100.14H272.938L269.77 104.332C270.506 103.884 271.05 103.756 271.706 103.756C274.074 103.756 275.642 105.516 275.642 107.708C275.642 109.98 273.898 111.692 271.69 111.692C269.482 111.692 267.706 109.948 267.706 107.708C267.706 106.412 268.026 105.516 269.018 104.188ZM268.474 107.708C268.474 109.596 269.802 110.972 271.69 110.972C273.546 110.972 274.874 109.596 274.874 107.708C274.874 105.836 273.546 104.476 271.69 104.476C269.802 104.476 268.474 105.836 268.474 107.708ZM278.598 105.404C278.118 105.404 277.718 105.004 277.718 104.54C277.718 104.06 278.118 103.66 278.598 103.66C279.078 103.66 279.478 104.06 279.478 104.54C279.478 105.004 279.078 105.404 278.598 105.404ZM278.598 111.676C278.118 111.676 277.718 111.276 277.718 110.812C277.718 110.332 278.118 109.932 278.598 109.932C279.078 109.932 279.478 110.332 279.478 110.812C279.478 111.276 279.078 111.676 278.598 111.676ZM281.71 105.82C281.71 102.284 283.374 99.932 286.142 99.932C288.91 99.932 290.574 102.284 290.574 105.82C290.574 109.356 288.91 111.708 286.142 111.708C283.374 111.708 281.71 109.356 281.71 105.82ZM282.462 105.82C282.462 108.908 283.806 110.988 286.142 110.988C288.478 110.988 289.822 108.908 289.822 105.82C289.822 102.732 288.478 100.652 286.142 100.652C283.806 100.652 282.462 102.732 282.462 105.82ZM292.491 105.82C292.491 102.284 294.155 99.932 296.923 99.932C299.691 99.932 301.355 102.284 301.355 105.82C301.355 109.356 299.691 111.708 296.923 111.708C294.155 111.708 292.491 109.356 292.491 105.82ZM293.243 105.82C293.243 108.908 294.587 110.988 296.923 110.988C299.259 110.988 300.603 108.908 300.603 105.82C300.603 102.732 299.259 100.652 296.923 100.652C294.587 100.652 293.243 102.732 293.243 105.82ZM307.837 107.66V106.988H312.253V107.66H307.837ZM325.797 111.5H318.501V110.86L322.101 107.676C324.437 105.612 324.981 104.796 324.981 103.34C324.981 101.692 323.957 100.668 322.309 100.668C320.613 100.668 319.461 101.916 319.397 103.82H318.629C318.709 101.484 320.181 99.948 322.341 99.948C324.357 99.948 325.749 101.324 325.749 103.292C325.749 104.972 325.061 106.028 322.549 108.236L319.653 110.796H325.797V111.5ZM334.61 111.5H327.314V110.86L330.914 107.676C333.25 105.612 333.794 104.796 333.794 103.34C333.794 101.692 332.77 100.668 331.122 100.668C329.426 100.668 328.274 101.916 328.21 103.82H327.442C327.522 101.484 328.994 99.948 331.154 99.948C333.17 99.948 334.562 101.324 334.562 103.292C334.562 104.972 333.874 106.028 331.362 108.236L328.466 110.796H334.61V111.5ZM337.566 105.404C337.086 105.404 336.686 105.004 336.686 104.54C336.686 104.06 337.086 103.66 337.566 103.66C338.046 103.66 338.446 104.06 338.446 104.54C338.446 105.004 338.046 105.404 337.566 105.404ZM337.566 111.676C337.086 111.676 336.686 111.276 336.686 110.812C336.686 110.332 337.086 109.932 337.566 109.932C338.046 109.932 338.446 110.332 338.446 110.812C338.446 111.276 338.046 111.676 337.566 111.676ZM343.735 105.196H343.031V104.636L346.743 100.844H341.031V100.14H347.783V100.78L344.087 104.54C346.423 104.54 347.991 105.932 347.991 107.996C347.991 110.204 346.423 111.692 344.119 111.692C341.879 111.692 340.471 110.3 340.471 108.108H341.239C341.239 109.884 342.343 110.972 344.119 110.972C346.007 110.972 347.223 109.788 347.223 107.964C347.223 106.22 345.943 105.196 343.735 105.196ZM349.757 105.82C349.757 102.284 351.421 99.932 354.189 99.932C356.957 99.932 358.621 102.284 358.621 105.82C358.621 109.356 356.957 111.708 354.189 111.708C351.421 111.708 349.757 109.356 349.757 105.82ZM350.509 105.82C350.509 108.908 351.853 110.988 354.189 110.988C356.525 110.988 357.869 108.908 357.869 105.82C357.869 102.732 356.525 100.652 354.189 100.652C351.853 100.652 350.509 102.732 350.509 105.82Z" fill="#EFE7D2"/>
<path d="M0.16 145.844V145.14H8.064V145.844H4.496V156.5H3.728V145.844H0.16ZM10.1708 156.484H9.43475V144.948H10.1708V150.308C10.6668 149.316 11.6268 148.628 12.9868 148.628C15.0508 148.628 15.8988 149.908 15.8988 151.828V156.5H15.1628V151.972C15.1628 149.94 14.2508 149.3 12.9388 149.3C11.0988 149.3 10.1708 150.708 10.1708 152.324V156.484ZM23.7036 148.82H24.4396V156.5H23.8476L23.7036 155.076C23.2876 156.036 22.1996 156.692 20.9196 156.692C19.0796 156.692 18.1356 155.428 18.1356 153.556V148.804H18.8876V153.364C18.8876 155.332 19.8156 156.02 21.0956 156.02C22.7116 156.02 23.7036 154.9 23.7036 152.916V148.82ZM30.5363 148.708V149.348H29.9603C28.5363 149.348 27.6083 150.388 27.6083 151.828V156.5H26.8723V148.82H27.5603L27.6243 150.052C27.9283 149.188 28.7763 148.628 29.8643 148.628C30.1043 148.628 30.2803 148.644 30.5363 148.708ZM31.3874 154.42H32.1074C32.1074 155.412 32.8434 156.02 34.0274 156.02C35.3234 156.02 36.1234 155.444 36.1234 154.5C36.1234 153.748 35.7554 153.364 34.7634 153.108L33.4674 152.772C32.1554 152.436 31.5314 151.7 31.5314 150.756C31.5314 149.476 32.5874 148.628 34.1714 148.628C35.7554 148.628 36.7474 149.476 36.7954 150.868H36.0754C36.0274 149.876 35.3234 149.3 34.1714 149.3C32.9394 149.3 32.2674 149.812 32.2674 150.756C32.2674 151.412 32.7154 151.876 33.6434 152.116L34.9234 152.452C36.2674 152.804 36.8594 153.428 36.8594 154.5C36.8594 155.812 35.7394 156.692 34.0594 156.692C32.4274 156.692 31.3874 155.812 31.3874 154.42ZM41.7854 156.692C39.5294 156.692 38.2494 154.932 38.2494 152.66C38.2494 150.388 39.5294 148.628 41.7854 148.628C43.1454 148.628 44.2014 149.236 44.7614 150.484V144.948H45.4974V156.5H44.9054L44.7934 154.772C44.2174 156.084 43.1134 156.692 41.7854 156.692ZM41.8654 156.02C43.7054 156.02 44.7454 154.612 44.7454 152.66C44.7454 150.724 43.7054 149.3 41.8654 149.3C40.0414 149.3 39.0014 150.724 39.0014 152.66C39.0014 154.612 40.0414 156.02 41.8654 156.02ZM50.1108 156.692C48.4628 156.692 47.5188 155.78 47.5188 154.468C47.5188 153.06 48.6068 152.164 50.3988 152.02L53.0388 151.812V151.524C53.0388 149.796 52.0148 149.3 50.7988 149.3C49.3748 149.3 48.5268 149.972 48.5268 151.092H47.7908C47.7908 149.588 49.0068 148.628 50.8148 148.628C52.4628 148.628 53.7748 149.428 53.7748 151.412V156.5H53.1828L53.0388 155.06C52.5108 156.1 51.4388 156.692 50.1108 156.692ZM50.2068 156.036C52.0148 156.036 53.0388 154.724 53.0388 152.836V152.42L50.4628 152.628C48.9108 152.756 48.2548 153.508 48.2548 154.452C48.2548 155.508 49.0548 156.036 50.2068 156.036ZM55.1184 159.748V159.156H55.8384C56.4624 159.156 57.2304 159.156 57.6304 158.068L58.0144 157.028L54.8944 148.82H55.6624L58.3664 156.02L60.9584 148.82H61.7104L58.3024 158.276C57.9024 159.38 57.1984 159.844 56.1584 159.844C55.7424 159.844 55.4384 159.812 55.1184 159.748Z" fill="#EFE7D2"/>
<rect x="78.25" y="159.75" width="167.5" height="0.5" stroke="#EFE7D2" stroke-opacity="0.15" stroke-width="0.5" stroke-dasharray="2 2"/>
<path d="M264.8 145.844H262.56V145.14H265.552V156.5H264.8V145.844ZM269.018 149.188L272.026 145.14H272.938L269.77 149.332C270.506 148.884 271.05 148.756 271.706 148.756C274.074 148.756 275.642 150.516 275.642 152.708C275.642 154.98 273.898 156.692 271.69 156.692C269.482 156.692 267.706 154.948 267.706 152.708C267.706 151.412 268.026 150.516 269.018 149.188ZM268.474 152.708C268.474 154.596 269.802 155.972 271.69 155.972C273.546 155.972 274.874 154.596 274.874 152.708C274.874 150.836 273.546 149.476 271.69 149.476C269.802 149.476 268.474 150.836 268.474 152.708ZM278.598 150.404C278.118 150.404 277.718 150.004 277.718 149.54C277.718 149.06 278.118 148.66 278.598 148.66C279.078 148.66 279.478 149.06 279.478 149.54C279.478 150.004 279.078 150.404 278.598 150.404ZM278.598 156.676C278.118 156.676 277.718 156.276 277.718 155.812C277.718 155.332 278.118 154.932 278.598 154.932C279.078 154.932 279.478 155.332 279.478 155.812C279.478 156.276 279.078 156.676 278.598 156.676ZM281.71 150.82C281.71 147.284 283.374 144.932 286.142 144.932C288.91 144.932 290.574 147.284 290.574 150.82C290.574 154.356 288.91 156.708 286.142 156.708C283.374 156.708 281.71 154.356 281.71 150.82ZM282.462 150.82C282.462 153.908 283.806 155.988 286.142 155.988C288.478 155.988 289.822 153.908 289.822 150.82C289.822 147.732 288.478 145.652 286.142 145.652C283.806 145.652 282.462 147.732 282.462 150.82ZM292.491 150.82C292.491 147.284 294.155 144.932 296.923 144.932C299.691 144.932 301.355 147.284 301.355 150.82C301.355 154.356 299.691 156.708 296.923 156.708C294.155 156.708 292.491 154.356 292.491 150.82ZM293.243 150.82C293.243 153.908 294.587 155.988 296.923 155.988C299.259 155.988 300.603 153.908 300.603 150.82C300.603 147.732 299.259 145.652 296.923 145.652C294.587 145.652 293.243 147.732 293.243 150.82ZM307.837 152.66V151.988H312.253V152.66H307.837ZM325.797 156.5H318.501V155.86L322.101 152.676C324.437 150.612 324.981 149.796 324.981 148.34C324.981 146.692 323.957 145.668 322.309 145.668C320.613 145.668 319.461 146.916 319.397 148.82H318.629C318.709 146.484 320.181 144.948 322.341 144.948C324.357 144.948 325.749 146.324 325.749 148.292C325.749 149.972 325.061 151.028 322.549 153.236L319.653 155.796H325.797V156.5ZM334.61 156.5H327.314V155.86L330.914 152.676C333.25 150.612 333.794 149.796 333.794 148.34C333.794 146.692 332.77 145.668 331.122 145.668C329.426 145.668 328.274 146.916 328.21 148.82H327.442C327.522 146.484 328.994 144.948 331.154 144.948C333.17 144.948 334.562 146.324 334.562 148.292C334.562 149.972 333.874 151.028 331.362 153.236L328.466 155.796H334.61V156.5ZM337.566 150.404C337.086 150.404 336.686 150.004 336.686 149.54C336.686 149.06 337.086 148.66 337.566 148.66C338.046 148.66 338.446 149.06 338.446 149.54C338.446 150.004 338.046 150.404 337.566 150.404ZM337.566 156.676C337.086 156.676 336.686 156.276 336.686 155.812C336.686 155.332 337.086 154.932 337.566 154.932C338.046 154.932 338.446 155.332 338.446 155.812C338.446 156.276 338.046 156.676 337.566 156.676ZM343.735 150.196H343.031V149.636L346.743 145.844H341.031V145.14H347.783V145.78L344.087 149.54C346.423 149.54 347.991 150.932 347.991 152.996C347.991 155.204 346.423 156.692 344.119 156.692C341.879 156.692 340.471 155.3 340.471 153.108H341.239C341.239 154.884 342.343 155.972 344.119 155.972C346.007 155.972 347.223 154.788 347.223 152.964C347.223 151.22 345.943 150.196 343.735 150.196ZM349.757 150.82C349.757 147.284 351.421 144.932 354.189 144.932C356.957 144.932 358.621 147.284 358.621 150.82C358.621 154.356 356.957 156.708 354.189 156.708C351.421 156.708 349.757 154.356 349.757 150.82ZM350.509 150.82C350.509 153.908 351.853 155.988 354.189 155.988C356.525 155.988 357.869 153.908 357.869 150.82C357.869 147.732 356.525 145.652 354.189 145.652C351.853 145.652 350.509 147.732 350.509 150.82Z" fill="#EFE7D2"/>
<path d="M7.04 196.348H2.208V201.5H1.44V190.14H7.968V190.844H2.208V195.644H7.04V196.348ZM12.9269 193.708V194.348H12.3509C10.9269 194.348 9.99888 195.388 9.99888 196.828V201.5H9.26288V193.82H9.95088L10.0149 195.052C10.3189 194.188 11.1669 193.628 12.2549 193.628C12.4949 193.628 12.6709 193.644 12.9269 193.708ZM14.834 191.468C14.466 191.468 14.162 191.164 14.162 190.812C14.162 190.444 14.466 190.124 14.834 190.124C15.186 190.124 15.506 190.444 15.506 190.812C15.506 191.164 15.186 191.468 14.834 191.468ZM14.466 201.5V193.82H15.202V201.5H14.466ZM20.5979 201.692C18.3419 201.692 17.0619 199.932 17.0619 197.66C17.0619 195.388 18.3419 193.628 20.5979 193.628C21.9579 193.628 23.0139 194.236 23.5739 195.484V189.948H24.3099V201.5H23.7179L23.6059 199.772C23.0299 201.084 21.9259 201.692 20.5979 201.692ZM20.6779 201.02C22.5179 201.02 23.5579 199.612 23.5579 197.66C23.5579 195.724 22.5179 194.3 20.6779 194.3C18.8539 194.3 17.8139 195.724 17.8139 197.66C17.8139 199.612 18.8539 201.02 20.6779 201.02ZM28.9233 201.692C27.2753 201.692 26.3313 200.78 26.3313 199.468C26.3313 198.06 27.4193 197.164 29.2113 197.02L31.8513 196.812V196.524C31.8513 194.796 30.8273 194.3 29.6113 194.3C28.1873 194.3 27.3393 194.972 27.3393 196.092H26.6033C26.6033 194.588 27.8193 193.628 29.6273 193.628C31.2753 193.628 32.5873 194.428 32.5873 196.412V201.5H31.9953L31.8513 200.06C31.3233 201.1 30.2513 201.692 28.9233 201.692ZM29.0193 201.036C30.8273 201.036 31.8513 199.724 31.8513 197.836V197.42L29.2753 197.628C27.7233 197.756 27.0673 198.508 27.0673 199.452C27.0673 200.508 27.8673 201.036 29.0193 201.036ZM33.9309 204.748V204.156H34.6509C35.2749 204.156 36.0429 204.156 36.4429 203.068L36.8269 202.028L33.7069 193.82H34.4749L37.1789 201.02L39.7709 193.82H40.5229L37.1149 203.276C36.7149 204.38 36.0109 204.844 34.9709 204.844C34.5549 204.844 34.2509 204.812 33.9309 204.748Z" fill="#EFE7D2"/>
<rect x="57.25" y="204.75" width="188.5" height="0.5" stroke="#EFE7D2" stroke-opacity="0.15" stroke-width="0.5" stroke-dasharray="2 2"/>
<path d="M264.8 190.844H262.56V190.14H265.552V201.5H264.8V190.844ZM269.018 194.188L272.026 190.14H272.938L269.77 194.332C270.506 193.884 271.05 193.756 271.706 193.756C274.074 193.756 275.642 195.516 275.642 197.708C275.642 199.98 273.898 201.692 271.69 201.692C269.482 201.692 267.706 199.948 267.706 197.708C267.706 196.412 268.026 195.516 269.018 194.188ZM268.474 197.708C268.474 199.596 269.802 200.972 271.69 200.972C273.546 200.972 274.874 199.596 274.874 197.708C274.874 195.836 273.546 194.476 271.69 194.476C269.802 194.476 268.474 195.836 268.474 197.708ZM278.598 195.404C278.118 195.404 277.718 195.004 277.718 194.54C277.718 194.06 278.118 193.66 278.598 193.66C279.078 193.66 279.478 194.06 279.478 194.54C279.478 195.004 279.078 195.404 278.598 195.404ZM278.598 201.676C278.118 201.676 277.718 201.276 277.718 200.812C277.718 200.332 278.118 199.932 278.598 199.932C279.078 199.932 279.478 200.332 279.478 200.812C279.478 201.276 279.078 201.676 278.598 201.676ZM281.71 195.82C281.71 192.284 283.374 189.932 286.142 189.932C288.91 189.932 290.574 192.284 290.574 195.82C290.574 199.356 288.91 201.708 286.142 201.708C283.374 201.708 281.71 199.356 281.71 195.82ZM282.462 195.82C282.462 198.908 283.806 200.988 286.142 200.988C288.478 200.988 289.822 198.908 289.822 195.82C289.822 192.732 288.478 190.652 286.142 190.652C283.806 190.652 282.462 192.732 282.462 195.82ZM292.491 195.82C292.491 192.284 294.155 189.932 296.923 189.932C299.691 189.932 301.355 192.284 301.355 195.82C301.355 199.356 299.691 201.708 296.923 201.708C294.155 201.708 292.491 199.356 292.491 195.82ZM293.243 195.82C293.243 198.908 294.587 200.988 296.923 200.988C299.259 200.988 300.603 198.908 300.603 195.82C300.603 192.732 299.259 190.652 296.923 190.652C294.587 190.652 293.243 192.732 293.243 195.82ZM307.837 197.66V196.988H312.253V197.66H307.837ZM325.797 201.5H318.501V200.86L322.101 197.676C324.437 195.612 324.981 194.796 324.981 193.34C324.981 191.692 323.957 190.668 322.309 190.668C320.613 190.668 319.461 191.916 319.397 193.82H318.629C318.709 191.484 320.181 189.948 322.341 189.948C324.357 189.948 325.749 191.324 325.749 193.292C325.749 194.972 325.061 196.028 322.549 198.236L319.653 200.796H325.797V201.5ZM334.61 201.5H327.314V200.86L330.914 197.676C333.25 195.612 333.794 194.796 333.794 193.34C333.794 191.692 332.77 190.668 331.122 190.668C329.426 190.668 328.274 191.916 328.21 193.82H327.442C327.522 191.484 328.994 189.948 331.154 189.948C333.17 189.948 334.562 191.324 334.562 193.292C334.562 194.972 333.874 196.028 331.362 198.236L328.466 200.796H334.61V201.5ZM337.566 195.404C337.086 195.404 336.686 195.004 336.686 194.54C336.686 194.06 337.086 193.66 337.566 193.66C338.046 193.66 338.446 194.06 338.446 194.54C338.446 195.004 338.046 195.404 337.566 195.404ZM337.566 201.676C337.086 201.676 336.686 201.276 336.686 200.812C336.686 200.332 337.086 199.932 337.566 199.932C338.046 199.932 338.446 200.332 338.446 200.812C338.446 201.276 338.046 201.676 337.566 201.676ZM343.735 195.196H343.031V194.636L346.743 190.844H341.031V190.14H347.783V190.78L344.087 194.54C346.423 194.54 347.991 195.932 347.991 197.996C347.991 200.204 346.423 201.692 344.119 201.692C341.879 201.692 340.471 200.3 340.471 198.108H341.239C341.239 199.884 342.343 200.972 344.119 200.972C346.007 200.972 347.223 199.788 347.223 197.964C347.223 196.22 345.943 195.196 343.735 195.196ZM349.757 195.82C349.757 192.284 351.421 189.932 354.189 189.932C356.957 189.932 358.621 192.284 358.621 195.82C358.621 199.356 356.957 201.708 354.189 201.708C351.421 201.708 349.757 199.356 349.757 195.82ZM350.509 195.82C350.509 198.908 351.853 200.988 354.189 200.988C356.525 200.988 357.869 198.908 357.869 195.82C357.869 192.732 356.525 190.652 354.189 190.652C351.853 190.652 350.509 192.732 350.509 195.82Z" fill="#EFE7D2"/>
<path d="M0.736 238.004C0.736 236.148 2.192 234.948 4.432 234.948C6.384 234.948 7.68 236.036 7.904 237.86H7.104C6.944 236.452 5.984 235.652 4.432 235.652C2.672 235.652 1.504 236.58 1.504 238.004C1.504 239.092 2.16 239.812 3.456 240.148L5.472 240.66C7.184 241.092 8.096 242.116 8.096 243.572C8.096 245.476 6.624 246.692 4.352 246.692C2.224 246.692 0.784 245.588 0.608 243.812H1.424C1.488 245.108 2.656 245.972 4.352 245.972C6.16 245.972 7.328 245.044 7.328 243.588C7.328 242.468 6.672 241.716 5.328 241.38L3.36 240.884C1.648 240.452 0.736 239.476 0.736 238.004ZM12.2045 246.692C10.5565 246.692 9.6125 245.78 9.6125 244.468C9.6125 243.06 10.7005 242.164 12.4925 242.02L15.1325 241.812V241.524C15.1325 239.796 14.1085 239.3 12.8925 239.3C11.4685 239.3 10.6205 239.972 10.6205 241.092H9.8845C9.8845 239.588 11.1005 238.628 12.9085 238.628C14.5565 238.628 15.8685 239.428 15.8685 241.412V246.5H15.2765L15.1325 245.06C14.6045 246.1 13.5325 246.692 12.2045 246.692ZM12.3005 246.036C14.1085 246.036 15.1325 244.724 15.1325 242.836V242.42L12.5565 242.628C11.0045 242.756 10.3485 243.508 10.3485 244.452C10.3485 245.508 11.1485 246.036 12.3005 246.036ZM19.4361 246.5H18.7001V239.46H17.1481V238.82H18.7001V236.388H19.4361V238.82H20.9881V239.46H19.4361V246.5ZM28.0005 238.82H28.7365V246.5H28.1445L28.0005 245.076C27.5845 246.036 26.4965 246.692 25.2165 246.692C23.3765 246.692 22.4325 245.428 22.4325 243.556V238.804H23.1845V243.364C23.1845 245.332 24.1125 246.02 25.3925 246.02C27.0085 246.02 28.0005 244.9 28.0005 242.916V238.82ZM34.8331 238.708V239.348H34.2571C32.8331 239.348 31.9051 240.388 31.9051 241.828V246.5H31.1691V238.82H31.8571L31.9211 240.052C32.2251 239.188 33.0731 238.628 34.1611 238.628C34.4011 238.628 34.5771 238.644 34.8331 238.708ZM39.0198 246.692C36.7638 246.692 35.4838 244.932 35.4838 242.66C35.4838 240.388 36.7638 238.628 39.0198 238.628C40.3798 238.628 41.4358 239.236 41.9958 240.484V234.948H42.7318V246.5H42.1398L42.0278 244.772C41.4518 246.084 40.3478 246.692 39.0198 246.692ZM39.0998 246.02C40.9398 246.02 41.9798 244.612 41.9798 242.66C41.9798 240.724 40.9398 239.3 39.0998 239.3C37.2758 239.3 36.2358 240.724 36.2358 242.66C36.2358 244.612 37.2758 246.02 39.0998 246.02ZM47.3451 246.692C45.6971 246.692 44.7531 245.78 44.7531 244.468C44.7531 243.06 45.8411 242.164 47.6331 242.02L50.2731 241.812V241.524C50.2731 239.796 49.2491 239.3 48.0331 239.3C46.6091 239.3 45.7611 239.972 45.7611 241.092H45.0251C45.0251 239.588 46.2411 238.628 48.0491 238.628C49.6971 238.628 51.0091 239.428 51.0091 241.412V246.5H50.4171L50.2731 245.06C49.7451 246.1 48.6731 246.692 47.3451 246.692ZM47.4411 246.036C49.2491 246.036 50.2731 244.724 50.2731 242.836V242.42L47.6971 242.628C46.1451 242.756 45.4891 243.508 45.4891 244.452C45.4891 245.508 46.2891 246.036 47.4411 246.036ZM52.3528 249.748V249.156H53.0728C53.6968 249.156 54.4648 249.156 54.8648 248.068L55.2488 247.028L52.1288 238.82H52.8968L55.6008 246.02L58.1928 238.82H58.9448L55.5368 248.276C55.1368 249.38 54.4328 249.844 53.3928 249.844C52.9768 249.844 52.6728 249.812 52.3528 249.748ZM72.5334 246.5L71.3814 245.172C70.5174 246.148 69.2534 246.708 67.7174 246.708C65.3494 246.708 63.8454 245.524 63.8454 243.668C63.8454 242.212 64.6774 241.172 66.8534 239.924C65.7654 238.66 65.3174 237.956 65.3174 237.156C65.3174 235.844 66.2774 234.964 67.7334 234.964C69.1254 234.964 70.0534 235.796 70.0534 237.06C70.0534 238.196 69.4454 239.044 67.9254 240.068L71.3654 244.068C71.7494 243.364 71.9414 242.468 71.9414 241.412H72.6614C72.6614 242.66 72.3574 243.748 71.8134 244.612L73.4454 246.5H72.5334ZM67.4294 239.492L67.4934 239.572C68.7574 238.788 69.3174 238.004 69.3174 237.06C69.3174 236.18 68.7094 235.62 67.7174 235.62C66.6934 235.62 66.0534 236.212 66.0534 237.156C66.0534 237.716 66.3094 238.196 67.4294 239.492ZM64.5814 243.668C64.5814 245.156 65.7494 246.052 67.7014 246.052C69.1254 246.052 70.2454 245.572 70.9654 244.676L67.2854 240.42C65.2854 241.54 64.5814 242.388 64.5814 243.668ZM78.2204 238.004C78.2204 236.148 79.6764 234.948 81.9164 234.948C83.8684 234.948 85.1644 236.036 85.3884 237.86H84.5884C84.4284 236.452 83.4684 235.652 81.9164 235.652C80.1564 235.652 78.9884 236.58 78.9884 238.004C78.9884 239.092 79.6444 239.812 80.9404 240.148L82.9564 240.66C84.6684 241.092 85.5804 242.116 85.5804 243.572C85.5804 245.476 84.1084 246.692 81.8364 246.692C79.7084 246.692 78.2684 245.588 78.0924 243.812H78.9084C78.9724 245.108 80.1404 245.972 81.8364 245.972C83.6444 245.972 84.8124 245.044 84.8124 243.588C84.8124 242.468 84.1564 241.716 82.8124 241.38L80.8444 240.884C79.1324 240.452 78.2204 239.476 78.2204 238.004ZM92.9849 238.82H93.7209V246.5H93.1289L92.9849 245.076C92.5689 246.036 91.4809 246.692 90.2009 246.692C88.3609 246.692 87.4169 245.428 87.4169 243.556V238.804H88.1689V243.364C88.1689 245.332 89.0969 246.02 90.3769 246.02C91.9929 246.02 92.9849 244.9 92.9849 242.916V238.82ZM96.8895 246.5H96.1535V238.82H96.7455L96.9055 240.308C97.4175 239.236 98.4735 238.628 99.6255 238.628C101.802 238.628 102.618 239.908 102.618 241.828V246.5H101.882V241.972C101.882 239.94 101.002 239.3 99.6095 239.3C97.8655 239.3 96.8895 240.596 96.8895 242.532V246.5ZM107.91 246.692C105.654 246.692 104.374 244.932 104.374 242.66C104.374 240.388 105.654 238.628 107.91 238.628C109.27 238.628 110.326 239.236 110.886 240.484V234.948H111.622V246.5H111.03L110.918 244.772C110.342 246.084 109.238 246.692 107.91 246.692ZM107.99 246.02C109.83 246.02 110.87 244.612 110.87 242.66C110.87 240.724 109.83 239.3 107.99 239.3C106.166 239.3 105.126 240.724 105.126 242.66C105.126 244.612 106.166 246.02 107.99 246.02ZM116.236 246.692C114.588 246.692 113.644 245.78 113.644 244.468C113.644 243.06 114.732 242.164 116.524 242.02L119.164 241.812V241.524C119.164 239.796 118.14 239.3 116.924 239.3C115.5 239.3 114.652 239.972 114.652 241.092H113.916C113.916 239.588 115.132 238.628 116.94 238.628C118.588 238.628 119.9 239.428 119.9 241.412V246.5H119.308L119.164 245.06C118.636 246.1 117.564 246.692 116.236 246.692ZM116.332 246.036C118.14 246.036 119.164 244.724 119.164 242.836V242.42L116.588 242.628C115.036 242.756 114.38 243.508 114.38 244.452C114.38 245.508 115.18 246.036 116.332 246.036ZM121.243 249.748V249.156H121.963C122.587 249.156 123.355 249.156 123.755 248.068L124.139 247.028L121.019 238.82H121.787L124.491 246.02L127.083 238.82H127.835L124.427 248.276C124.027 249.38 123.323 249.844 122.283 249.844C121.867 249.844 121.563 249.812 121.243 249.748Z" fill="#EFE7D2"/>
<rect x="144.25" y="249.75" width="101.5" height="0.5" stroke="#EFE7D2" stroke-opacity="0.15" stroke-width="0.5" stroke-dasharray="2 2"/>
<path d="M264.8 235.844H262.56V235.14H265.552V246.5H264.8V235.844ZM269.018 239.188L272.026 235.14H272.938L269.77 239.332C270.506 238.884 271.05 238.756 271.706 238.756C274.074 238.756 275.642 240.516 275.642 242.708C275.642 244.98 273.898 246.692 271.69 246.692C269.482 246.692 267.706 244.948 267.706 242.708C267.706 241.412 268.026 240.516 269.018 239.188ZM268.474 242.708C268.474 244.596 269.802 245.972 271.69 245.972C273.546 245.972 274.874 244.596 274.874 242.708C274.874 240.836 273.546 239.476 271.69 239.476C269.802 239.476 268.474 240.836 268.474 242.708ZM278.598 240.404C278.118 240.404 277.718 240.004 277.718 239.54C277.718 239.06 278.118 238.66 278.598 238.66C279.078 238.66 279.478 239.06 279.478 239.54C279.478 240.004 279.078 240.404 278.598 240.404ZM278.598 246.676C278.118 246.676 277.718 246.276 277.718 245.812C277.718 245.332 278.118 244.932 278.598 244.932C279.078 244.932 279.478 245.332 279.478 245.812C279.478 246.276 279.078 246.676 278.598 246.676ZM281.71 240.82C281.71 237.284 283.374 234.932 286.142 234.932C288.91 234.932 290.574 237.284 290.574 240.82C290.574 244.356 288.91 246.708 286.142 246.708C283.374 246.708 281.71 244.356 281.71 240.82ZM282.462 240.82C282.462 243.908 283.806 245.988 286.142 245.988C288.478 245.988 289.822 243.908 289.822 240.82C289.822 237.732 288.478 235.652 286.142 235.652C283.806 235.652 282.462 237.732 282.462 240.82ZM292.491 240.82C292.491 237.284 294.155 234.932 296.923 234.932C299.691 234.932 301.355 237.284 301.355 240.82C301.355 244.356 299.691 246.708 296.923 246.708C294.155 246.708 292.491 244.356 292.491 240.82ZM293.243 240.82C293.243 243.908 294.587 245.988 296.923 245.988C299.259 245.988 300.603 243.908 300.603 240.82C300.603 237.732 299.259 235.652 296.923 235.652C294.587 235.652 293.243 237.732 293.243 240.82ZM307.837 242.66V241.988H312.253V242.66H307.837ZM325.797 246.5H318.501V245.86L322.101 242.676C324.437 240.612 324.981 239.796 324.981 238.34C324.981 236.692 323.957 235.668 322.309 235.668C320.613 235.668 319.461 236.916 319.397 238.82H318.629C318.709 236.484 320.181 234.948 322.341 234.948C324.357 234.948 325.749 236.324 325.749 238.292C325.749 239.972 325.061 241.028 322.549 243.236L319.653 245.796H325.797V246.5ZM334.61 246.5H327.314V245.86L330.914 242.676C333.25 240.612 333.794 239.796 333.794 238.34C333.794 236.692 332.77 235.668 331.122 235.668C329.426 235.668 328.274 236.916 328.21 238.82H327.442C327.522 236.484 328.994 234.948 331.154 234.948C333.17 234.948 334.562 236.324 334.562 238.292C334.562 239.972 333.874 241.028 331.362 243.236L328.466 245.796H334.61V246.5ZM337.566 240.404C337.086 240.404 336.686 240.004 336.686 239.54C336.686 239.06 337.086 238.66 337.566 238.66C338.046 238.66 338.446 239.06 338.446 239.54C338.446 240.004 338.046 240.404 337.566 240.404ZM337.566 246.676C337.086 246.676 336.686 246.276 336.686 245.812C336.686 245.332 337.086 244.932 337.566 244.932C338.046 244.932 338.446 245.332 338.446 245.812C338.446 246.276 338.046 246.676 337.566 246.676ZM343.735 240.196H343.031V239.636L346.743 235.844H341.031V235.14H347.783V235.78L344.087 239.54C346.423 239.54 347.991 240.932 347.991 242.996C347.991 245.204 346.423 246.692 344.119 246.692C341.879 246.692 340.471 245.3 340.471 243.108H341.239C341.239 244.884 342.343 245.972 344.119 245.972C346.007 245.972 347.223 244.788 347.223 242.964C347.223 241.22 345.943 240.196 343.735 240.196ZM349.757 240.82C349.757 237.284 351.421 234.932 354.189 234.932C356.957 234.932 358.621 237.284 358.621 240.82C358.621 244.356 356.957 246.708 354.189 246.708C351.421 246.708 349.757 244.356 349.757 240.82ZM350.509 240.82C350.509 243.908 351.853 245.988 354.189 245.988C356.525 245.988 357.869 243.908 357.869 240.82C357.869 237.732 356.525 235.652 354.189 235.652C351.853 235.652 350.509 237.732 350.509 240.82Z" fill="#EFE7D2"/>
</svg>
